<?xml version="1.0" encoding="utf-8"?>
<!-- Generator: Adobe Illustrator 27.3.1, SVG Export Plug-In . SVG Version: 6.00 Build 0)  -->
<svg version="1.1" id="Layer_2_00000146493801381882301800000012541604763993722037_"
	 xmlns="http://www.w3.org/2000/svg" xmlns:xlink="http://www.w3.org/1999/xlink" x="0px" y="0px" viewBox="0 0 695.6 244.2"
	 style="enable-background:new 0 0 695.6 244.2;" xml:space="preserve">
<style type="text/css">
	.st0{fill:#231F20;}
	.st1{fill:#FFFFFF;}
	.st2{fill:#231F20;stroke:#231F20;stroke-width:3;stroke-linejoin:round;}
</style>
<g id="Layer_1-2">
	<g>
		<g id="XMLID_00000080917256875415098070000005391345057676450213_">
			<g>
				<path class="st0" d="M635.3,101.5c1.9,2.9,2.2,6.7,0.8,10.6c-1.4,3.7-3.9,7-7.7,10l-3.2,2.5c0.1,0.1,0.1,0.1,0.2,0.2
					c0.1,0.1,0.1,0.2,0.2,0.3s0.1,0.2,0.2,0.3c0.1,0.1,0.1,0.2,0.2,0.3c0.1,0.1,0.1,0.2,0.2,0.3c0.1,0.1,0.1,0.2,0.2,0.3
					s0.1,0.2,0.2,0.3s0.1,0.2,0.2,0.3c0.1,0.1,0.1,0.2,0.2,0.3l0,0c1.9,2.7,2.3,6.4,0.8,10.6c-1.3,3.4-4.1,6.9-7.9,9.8
					c-7.9,6.2-19.3,10.1-29.1,10.1c-9.7,0-17.1-3.5-21.3-9.2c-0.1-0.1-0.1-0.2-0.2-0.3c-0.1-0.1-0.1-0.2-0.2-0.3
					c-0.1-0.1-0.1-0.2-0.2-0.3c-0.1-0.1-0.1-0.2-0.2-0.3c-0.1-0.1-0.1-0.2-0.2-0.3c-0.1-0.1-0.1-0.2-0.2-0.3
					c-0.1-0.1-0.1-0.2-0.2-0.3c-0.1-0.1-0.1-0.2-0.2-0.3c-0.1-0.1-0.1-0.2-0.2-0.3c-0.1-0.1-0.1-0.2-0.2-0.3
					c-0.1-0.1-0.1-0.2-0.2-0.3c-0.1-0.1-0.1-0.2-0.2-0.3c-0.1-0.1-0.1-0.2-0.2-0.3c-0.1-0.1-0.1-0.2-0.2-0.3
					c-0.1-0.1-0.1-0.2-0.2-0.3c-0.1-0.1-0.1-0.2-0.2-0.3c-0.1-0.1-0.1-0.2-0.2-0.3c-0.1-0.1-0.1-0.2-0.2-0.3
					c-0.1-0.1-0.1-0.2-0.2-0.3c-0.1-0.1-0.1-0.2-0.2-0.3c-0.1-0.1-0.1-0.2-0.2-0.3c-0.1-0.1-0.1-0.2-0.2-0.3
					c-0.1-0.1-0.1-0.2-0.2-0.3c-0.1-0.1-0.1-0.2-0.2-0.3c-0.1-0.1-0.1-0.2-0.2-0.3c-0.1-0.1-0.1-0.2-0.2-0.3
					c-0.1-0.1-0.1-0.2-0.2-0.3c-0.1-0.1-0.1-0.2-0.2-0.3c-0.1-0.1-0.1-0.2-0.2-0.3c-0.1-0.1-0.1-0.2-0.2-0.3
					c-0.8-1.1-1.5-2.3-2.1-3.5c-7.4,5.8-21.1,16.5-21.2,16.6c-4.4,3.4-9.2,5.1-14,5.1c-4.5,0-7.9-1.7-9.8-4.4
					c-0.1-0.1-0.1-0.2-0.2-0.3c-0.1-0.1-0.1-0.2-0.2-0.3c-0.1-0.1-0.1-0.2-0.2-0.3c-4.2,3.2-9.4,5.2-14.3,5.2
					c-4.1,0-7.4-1.4-9.4-3.8c-3.7,2.3-7.9,3.8-12,3.8c-9.4,0-16.3-3.2-20.1-8.7c-0.1-0.1-0.1-0.2-0.2-0.3c-0.1-0.1-0.1-0.2-0.2-0.3
					c-0.1-0.1-0.1-0.2-0.2-0.3c-0.1-0.1-0.1-0.2-0.2-0.3c-0.1-0.1-0.1-0.2-0.2-0.3s-0.1-0.2-0.2-0.3c-0.1-0.1-0.1-0.2-0.2-0.3
					c-0.1-0.1-0.1-0.2-0.2-0.3c-0.1-0.1-0.1-0.2-0.2-0.3c-0.1-0.1-0.1-0.2-0.2-0.3s-0.1-0.2-0.2-0.3c-0.1-0.1-0.1-0.2-0.2-0.3
					c-0.1-0.1-0.1-0.2-0.2-0.3c-0.1-0.1-0.1-0.2-0.2-0.3c-0.1-0.1-0.1-0.2-0.2-0.3c0-0.1-0.1-0.1-0.1-0.2
					c-3.8,7.5-12.8,13.3-21.1,13.3c-3,0-5.6-0.8-7.6-2.1c-4.3,1.4-8.6,2.1-12.8,2.1c-9.2,0-16.2-3.5-20-9.3
					c-7.8,5.8-18,9.3-28.1,9.3c-10.1,0-17.7-3.8-21.8-9.9c-0.1-0.1-0.1-0.2-0.2-0.3s-0.1-0.2-0.2-0.3c-0.1-0.1-0.1-0.2-0.2-0.3
					c-0.1-0.1-0.1-0.2-0.2-0.3c-0.1-0.1-0.1-0.2-0.2-0.3c-0.1-0.1-0.1-0.2-0.2-0.3s-0.1-0.2-0.2-0.3c-0.1-0.1-0.1-0.2-0.2-0.3
					c-0.1-0.1-0.1-0.2-0.2-0.3c-0.1-0.1-0.1-0.2-0.2-0.3c-0.1-0.1-0.1-0.2-0.2-0.3s-0.1-0.2-0.2-0.3c-0.1-0.1-0.1-0.2-0.2-0.3
					c-0.1-0.1-0.1-0.2-0.2-0.3c-0.1-0.1-0.1-0.2-0.2-0.3c-0.1-0.1-0.1-0.2-0.2-0.3s-0.1-0.2-0.2-0.3c-0.1-0.1-0.1-0.2-0.2-0.3
					c-0.1-0.1-0.1-0.2-0.2-0.3c-0.1-0.1-0.1-0.2-0.2-0.3c-0.1-0.1-0.1-0.2-0.2-0.3s-0.1-0.2-0.2-0.3c-0.1-0.1-0.1-0.2-0.2-0.3
					c-0.1-0.1-0.1-0.2-0.2-0.3c-0.1-0.1-0.1-0.2-0.2-0.3c-0.1-0.1-0.1-0.2-0.2-0.3s-0.1-0.2-0.2-0.3c-0.1-0.1-0.1-0.2-0.2-0.3
					c-0.1-0.1-0.1-0.2-0.2-0.3c-0.1-0.1-0.1-0.2-0.2-0.3c0-0.1-0.1-0.1-0.1-0.2l-1.4,3.8c-3.1,8.4-12.9,15.1-21.9,15.1
					c-4.6,0-8.1-1.8-10.1-4.7c-0.1-0.1-0.1-0.2-0.2-0.3c-0.1-0.1-0.1-0.2-0.2-0.3c-0.1-0.1-0.1-0.2-0.2-0.3
					c-0.1-0.1-0.1-0.2-0.2-0.3c-0.1-0.1-0.1-0.2-0.2-0.3c-0.1-0.1-0.1-0.2-0.2-0.3c-0.1-0.1-0.1-0.2-0.2-0.3
					c-0.1-0.1-0.1-0.2-0.2-0.3c-0.1-0.1-0.1-0.2-0.2-0.3c-0.1-0.1-0.1-0.2-0.2-0.3c-0.1-0.1-0.1-0.2-0.2-0.3
					c-0.1-0.1-0.1-0.2-0.2-0.3c0,0,0,0,0-0.1c-9.5,5.3-20.1,8.3-29.9,8.3c-12.5,0-21.9-4.6-27-12c-0.1-0.1-0.1-0.2-0.2-0.3
					c-0.1-0.1-0.1-0.2-0.2-0.3c-0.1-0.1-0.1-0.2-0.2-0.3c-0.1-0.1-0.1-0.2-0.2-0.3c-0.1-0.1-0.1-0.2-0.2-0.3
					c-0.1-0.1-0.1-0.2-0.2-0.3c-0.1-0.1-0.1-0.2-0.2-0.3c-0.1-0.1-0.1-0.2-0.2-0.3c-0.1-0.1-0.1-0.2-0.2-0.3
					c-0.1-0.1-0.1-0.2-0.2-0.3c-0.1-0.1-0.1-0.2-0.2-0.3c-0.1-0.1-0.1-0.2-0.2-0.3c-0.1-0.1-0.1-0.2-0.2-0.3
					c-0.1-0.1-0.1-0.2-0.2-0.3c-0.1-0.1-0.1-0.2-0.2-0.3c-0.1-0.1-0.1-0.2-0.2-0.3c-0.1-0.1-0.1-0.2-0.2-0.3
					c-0.1-0.1-0.1-0.2-0.2-0.3c-0.1-0.1-0.1-0.2-0.2-0.3c-0.1-0.1-0.1-0.2-0.2-0.3c-0.1-0.1-0.1-0.2-0.2-0.3
					c-0.1-0.1-0.1-0.2-0.2-0.3c-0.1-0.1-0.1-0.2-0.2-0.3c-0.1-0.1-0.1-0.2-0.2-0.3c-0.1-0.1-0.1-0.2-0.2-0.3
					c-0.1-0.1-0.1-0.2-0.2-0.3c-0.1-0.1-0.1-0.2-0.2-0.3c-0.1-0.1-0.1-0.2-0.2-0.3c-0.1-0.1-0.1-0.2-0.2-0.3
					c-0.1-0.1-0.1-0.2-0.2-0.3c-5.2-7.3-6.3-17.5-2.1-28.9c8.5-22.8,34.4-40.7,59.1-40.7c11.9,0,21.7,4.4,26.9,12.1
					c0,0.1,0.1,0.1,0.1,0.1c0,0,0,0,0,0c0,0,0.1,0.1,0.1,0.1c0,0,0.1,0.1,0.1,0.1c0,0,0,0,0,0c0,0,0.1,0.1,0.1,0.1
					c0,0.1,0.1,0.1,0.1,0.1c0,0,0,0,0,0c0,0,0.1,0.1,0.1,0.1c0,0.1,0.1,0.1,0.1,0.1c0,0,0,0,0,0c0,0,0.1,0.1,0.1,0.1
					c0,0,0.1,0.1,0.1,0.1c0,0,0,0,0,0c0,0,0.1,0.1,0.1,0.1c0,0.1,0.1,0.1,0.1,0.1c0,0,0,0,0,0c0,0,0.1,0.1,0.1,0.1
					c0,0,0.1,0.1,0.1,0.1c0,0,0,0,0,0c0,0,0.1,0.1,0.1,0.1c0,0.1,0.1,0.1,0.1,0.1c0,0,0,0,0,0c0,0,0.1,0.1,0.1,0.1
					c0,0.1,0.1,0.1,0.1,0.1c0,0,0,0,0,0c0,0,0.1,0.1,0.1,0.1c0,0,0.1,0.1,0.1,0.1c0,0,0,0,0,0c0,0,0.1,0.1,0.1,0.1
					c0,0.1,0.1,0.1,0.1,0.1c0,0,0,0,0,0c0,0,0.1,0.1,0.1,0.1c0,0,0.1,0.1,0.1,0.1c0,0,0,0,0,0c0,0,0.1,0.1,0.1,0.1
					c0,0.1,0.1,0.1,0.1,0.1c0,0,0,0,0,0c0,0,0.1,0.1,0.1,0.1c0,0.1,0.1,0.1,0.1,0.1c0,0,0,0,0,0c0,0,0.1,0.1,0.1,0.1
					c0,0,0.1,0.1,0.1,0.1c0,0,0,0,0,0c0,0,0.1,0.1,0.1,0.1c0,0.1,0.1,0.1,0.1,0.1c0,0,0,0,0,0c0,0,0.1,0.1,0.1,0.1
					c0,0,0.1,0.1,0.1,0.1c0,0,0,0,0,0c0,0,0.1,0.1,0.1,0.1c0,0.1,0.1,0.1,0.1,0.1c0,0,0,0,0,0c0,0,0.1,0.1,0.1,0.1
					c0,0.1,0.1,0.1,0.1,0.1c0,0,0,0,0,0c0,0,0.1,0.1,0.1,0.1c0,0,0.1,0.1,0.1,0.1c0,0,0,0,0,0c0,0,0.1,0.1,0.1,0.1
					c0,0.1,0.1,0.1,0.1,0.1c0,0,0,0,0,0c0,0,0.1,0.1,0.1,0.1c0,0,0.1,0.1,0.1,0.1c0,0,0,0,0,0c0,0,0.1,0.1,0.1,0.1
					c0,0.1,0.1,0.1,0.1,0.1c0,0,0,0,0,0c0,0,0.1,0.1,0.1,0.1c0,0.1,0.1,0.1,0.1,0.1c0,0,0,0,0,0c0,0,0.1,0.1,0.1,0.1
					c0,0,0.1,0.1,0.1,0.1c0,0,0,0,0,0c0,0,0.1,0.1,0.1,0.1c0,0.1,0.1,0.1,0.1,0.1c0,0,0,0,0,0c0,0,0.1,0.1,0.1,0.1
					c0,0,0.1,0.1,0.1,0.1c0,0,0,0,0,0c0,0,0.1,0.1,0.1,0.1c0,0.1,0.1,0.1,0.1,0.1c0,0,0,0,0,0c0,0,0.1,0.1,0.1,0.1
					c0,0.1,0.1,0.1,0.1,0.1c0,0,0,0,0,0c0,0,0.1,0.1,0.1,0.1c0,0,0.1,0.1,0.1,0.1c0,0,0,0,0,0c0,0,0.1,0.1,0.1,0.1
					c0,0.1,0.1,0.1,0.1,0.1c0,0,0,0,0,0c0,0,0.1,0.1,0.1,0.1c6.1-2.9,12.8-4.6,19.5-4.6c4.3,0,7.6,1.6,9.5,4.2
					c0.1,0.1,0.1,0.2,0.2,0.3c0.1,0.1,0.1,0.2,0.2,0.3s0.1,0.2,0.2,0.3c0.1,0.1,0.1,0.2,0.2,0.3c0.1,0.1,0.1,0.2,0.2,0.3
					s0.1,0.2,0.2,0.3c0.1,0.1,0.1,0.2,0.2,0.3c0.1,0.1,0.1,0.2,0.2,0.2c7.4-4.1,15.7-6.5,23.8-6.5c10.2,0,17,3.9,20,7.6
					c0.3,0.3,0.5,0.6,0.7,1c0.1,0.1,0.1,0.2,0.2,0.3c0.1,0.1,0.1,0.2,0.2,0.3c0,0,0.1,0.1,0.1,0.1c8.1-5.8,17.6-9.3,26.9-9.3
					c4.2,0,7.9,0.7,11.2,2.1c3-1.4,6.2-2.1,9.2-2.1c4,0,7.1,1.3,9.1,3.5c0.5-0.3,1-0.5,1.5-0.7c3.8-7.5,12.8-13.3,21.2-13.3
					c4.8,0,8.4,1.9,10.2,5c0.1,0.1,0.1,0.2,0.2,0.3s0.1,0.2,0.2,0.3c0.1,0.1,0.1,0.2,0.2,0.3s0.1,0.2,0.2,0.3s0.1,0.2,0.2,0.3
					c0.1,0.1,0.1,0.2,0.2,0.3s0.1,0.2,0.2,0.3c0.1,0.1,0.1,0.2,0.2,0.3s0.1,0.2,0.2,0.3s0.1,0.2,0.2,0.3c0.1,0.1,0.1,0.2,0.2,0.3
					s0.1,0.2,0.2,0.3c0.1,0.1,0.1,0.2,0.2,0.3s0.1,0.2,0.2,0.3s0.1,0.2,0.2,0.3c0.1,0.1,0.1,0.2,0.2,0.3s0.1,0.2,0.2,0.3
					c0.1,0.1,0.1,0.2,0.2,0.3s0.1,0.2,0.2,0.3s0.1,0.2,0.2,0.3c0.1,0.1,0.1,0.2,0.2,0.3s0.1,0.2,0.2,0.3c0,0,0.1,0.1,0.1,0.1
					c0.6,0.1,1.2,0.2,1.8,0.4c0.1-1.3,0.4-2.6,0.9-4c3.3-8.8,13.7-16,23.2-16c4.9,0,8.6,1.9,10.6,4.9c0.1,0.1,0.1,0.2,0.2,0.3
					s0.1,0.2,0.2,0.3s0.1,0.2,0.2,0.3c0.1,0.1,0.1,0.2,0.2,0.3s0.1,0.2,0.2,0.3c0.1,0.1,0.1,0.2,0.2,0.3s0.1,0.2,0.2,0.3
					s0.1,0.2,0.2,0.3c0.1,0.1,0.1,0.2,0.2,0.3s0.1,0.2,0.2,0.3c0.1,0.1,0.1,0.2,0.2,0.3s0.1,0.2,0.2,0.3s0.1,0.2,0.2,0.3
					c0.1,0.1,0.1,0.2,0.2,0.3s0.1,0.2,0.2,0.3c0.1,0.1,0.1,0.2,0.2,0.3s0.1,0.2,0.2,0.3s0.1,0.2,0.2,0.3c0.1,0.1,0.1,0.2,0.2,0.3
					s0.1,0.2,0.2,0.3c0.1,0.1,0.1,0.2,0.2,0.3s0.1,0.2,0.2,0.3s0.1,0.2,0.2,0.3c0.1,0.1,0.1,0.2,0.2,0.3s0.1,0.2,0.2,0.3
					c0.1,0.1,0.1,0.2,0.2,0.3s0.1,0.2,0.2,0.3s0.1,0.2,0.2,0.3c0.1,0.1,0.1,0.2,0.2,0.3s0.1,0.2,0.2,0.3c1,1.3,1.6,2.9,1.8,4.7
					c4.3,0.2,7.5,1.9,9.4,4.6c0.1,0.1,0.1,0.2,0.2,0.3s0.1,0.2,0.2,0.3c0.1,0.1,0.1,0.2,0.2,0.3s0.1,0.2,0.2,0.3
					c0.1,0.1,0.1,0.2,0.2,0.3s0.1,0.2,0.2,0.3s0.1,0.2,0.2,0.3c0.1,0.1,0.1,0.2,0.2,0.3s0.1,0.2,0.2,0.3c0.1,0.1,0.1,0.2,0.2,0.3
					s0.1,0.2,0.2,0.3s0.1,0.2,0.2,0.3c0.1,0.1,0.1,0.2,0.2,0.3s0.1,0.2,0.2,0.3c0.1,0.1,0.1,0.2,0.2,0.3c0,0,0,0,0,0
					c1.9-1.5,5.1-4,5.1-4c4.4-3.3,9.1-5.1,13.7-5.1s8.2,1.7,10,4.6c0.1,0.1,0.1,0.2,0.2,0.3c0.1,0.1,0.1,0.2,0.2,0.3
					s0.1,0.2,0.2,0.3c0,0,0.1,0.1,0.1,0.1c6.9-3.5,14.5-5.6,22-5.6c10.2,0,17.1,3.9,20,7.6c0.3,0.4,0.6,0.8,0.9,1.3
					c0,0.1,0.1,0.2,0.2,0.2c0.1,0.1,0.1,0.2,0.2,0.3s0.1,0.2,0.2,0.3s0.1,0.2,0.2,0.3c0.1,0.1,0.1,0.2,0.2,0.3s0.1,0.2,0.2,0.3
					c0.1,0.1,0.1,0.2,0.2,0.3s0.1,0.2,0.2,0.3s0.1,0.2,0.2,0.3c0.1,0.1,0.1,0.2,0.2,0.3s0.1,0.2,0.2,0.3c0.1,0.1,0.1,0.2,0.2,0.3
					s0.1,0.2,0.2,0.3s0.1,0.2,0.2,0.3c0.1,0.1,0.1,0.2,0.2,0.3s0.1,0.2,0.2,0.3c0.1,0.1,0.1,0.2,0.2,0.3s0.1,0.2,0.2,0.3
					s0.1,0.2,0.2,0.3c0.1,0.1,0.1,0.2,0.2,0.3s0.1,0.2,0.2,0.3c0.1,0.1,0.1,0.2,0.2,0.3s0.1,0.2,0.2,0.3s0.1,0.2,0.2,0.3
					c0.1,0.1,0.1,0.2,0.2,0.3s0.1,0.2,0.2,0.3c0.1,0.1,0.1,0.2,0.2,0.3s0.1,0.2,0.2,0.3s0.1,0.2,0.2,0.3
					C635.2,101.4,635.2,101.5,635.3,101.5z M620.1,102.9c0.6-1.8,0.4-3.5-0.6-4.8c-1.8-2.3-6.6-5.3-14.4-5.3
					c-14.7,0-29.2,10.3-34,23.3c-4.9,13.1,2.1,23.3,16.7,23.3c8.2,0,15.9-3.3,20.5-6.9l0,0c1.7-1.3,2.9-2.8,3.4-4
					c1.3-3.4-0.7-5.9-4.4-5.9c-2.6,0-4.4,1.3-6.8,2.8c-2.1,1.2-4.9,2.6-8.5,2.6c-6.8,0-10-5.3-7.6-11.9c2.5-6.6,9.6-11.9,16.4-11.9
					c1,0,2.6,0.2,3.2,0.4l-11.4,8.7c-1.4,1.1-2.3,2.4-2.8,3.7c-1.2,3.3,0.7,5.6,4.3,5.6c1.8,0,3.5-0.6,5.3-2l17.3-13.6
					C618.6,105.7,619.5,104.4,620.1,102.9z M576.7,98.5c1.2-3.3-0.7-5.6-4.3-5.6c-1.8,0-3.5,0.6-5.3,2l-29.2,22.9l7-18.8
					c1.3-3.4-0.6-6.2-4.4-6.2c-3.7,0-7.7,2.7-8.9,6.2l-12.8,34.3c-1.3,3.4,0.7,6.2,4.4,6.2c2.1,0,3.8-0.6,5.6-2l45.1-35.3
					C575.3,101,576.2,99.7,576.7,98.5z M527.6,81.4c1.4-3.9-0.8-7.1-5-7.1s-8.8,3.2-10.2,7.1s0.8,7.1,5,7.1S526.2,85.3,527.6,81.4z
					 M520.2,99c1.3-3.4-0.7-6.2-4.4-6.2c-3.7,0-7.7,2.7-8.9,6.2l-12.8,34.3c-1.3,3.4,0.6,6.2,4.4,6.2c3.7,0,7.7-2.7,8.9-6.2
					L520.2,99z M498.1,99.5c1.2-3.2-0.6-5.7-4.1-5.7h-9.8l2-5.3c1.3-3.4-0.6-6.2-4.4-6.2c-3.7,0-7.7,2.7-8.9,6.2l-2,5.3h-1.8
					c-3.4,0-7.1,2.5-8.3,5.7s0.6,5.7,4,5.7h1.8l-4.5,12.1c-5.1,13.7,2,22.3,14.8,22.3c3.4,0,7.1-2.6,8.3-5.7
					c1.2-3.2-0.6-5.7-4.1-5.7c-5.4,0-8.5-3.5-5.8-10.8l4.5-12.1h9.8C493.2,105.2,497,102.7,498.1,99.5z M454.4,99.1
					c1.3-3.4-0.6-6.2-4.4-6.2c-3,0-6.3,1.8-8.1,4.4c-2.9-2.7-7.1-4.4-12.3-4.4c-13.4,0-27.3,10.3-32.1,23.3
					c-4.8,13,1.4,23.3,14.8,23.3c5.2,0,10.7-1.6,15.6-4.4c-0.1,2.6,1.8,4.4,4.8,4.4c3.7,0,7.7-2.7,8.9-6.2l0,0L454.4,99.1z
					 M396.5,102.9c0.6-1.8,0.5-3.5-0.6-4.8c-1.8-2.3-6.6-5.3-14.4-5.3c-14.7,0-29.2,10.3-34,23.3c-4.9,13.1,2.1,23.3,16.7,23.3
					c8.2,0,15.9-3.3,20.5-6.9l0,0c1.7-1.3,2.9-2.8,3.4-4.1c1.3-3.4-0.7-5.9-4.4-5.9c-2.6,0-4.4,1.3-6.8,2.8
					c-2.1,1.2-4.9,2.6-8.4,2.6c-6.8,0-10-5.3-7.6-11.9c2.4-6.6,9.6-11.9,16.4-11.9c1,0,2.6,0.2,3.2,0.4l-11.4,8.7
					c-1.4,1.1-2.3,2.4-2.8,3.7c-1.2,3.3,0.7,5.6,4.3,5.6c1.8,0,3.5-0.6,5.3-2l17.3-13.6C395,105.8,395.9,104.4,396.5,102.9z
					 M350.7,98.6c1.2-3.2-0.6-5.7-4-5.7c-12.8,0-26.3,8.6-31.4,22.3l-6.8,18.2c-1.3,3.4,0.7,6.2,4.4,6.2s7.7-2.7,8.9-6.2l6.8-18.2
					c2.7-7.3,8.4-10.8,13.8-10.8C345.8,104.3,349.5,101.8,350.7,98.6z M315.2,90c0.6-1.5,0.5-3.3-0.2-4.5c-3.7-5.6-11-9.3-21-9.3
					c-19.2,0-39.5,14-46.1,31.7c-6.6,17.7,3.3,31.7,22.5,31.7c10,0,20-3.8,27.9-9.3c1.7-1.2,3-3,3.6-4.5c1.3-3.6-0.8-6.5-4.7-6.5
					c-1.9,0-4.2,1-6.6,2.6c-4.6,3-9.9,5-15.4,5c-10.9,0-16.5-8.4-12.5-18.9c3.9-10.6,15.7-18.9,26.6-18.9c5.5,0,9.2,2,11.6,5l0,0
					c1.3,1.6,2.9,2.6,4.8,2.6C309.6,96.5,313.9,93.6,315.2,90z M298.7,110.4L298.7,110.4c-0.1-0.2-0.3-0.3-0.4-0.5
					c-1.5-1.9-3.4-2.7-6-2.7c-5.5,0-11.5,4.4-13.6,10c-0.1,0.2-0.2,0.5-0.2,0.7c0.1,0,0.1,0,0.2,0c2.6,0,5.1-0.9,7.9-2.7
					C290.9,112.4,295,110.8,298.7,110.4z"/>
				<path class="st1" d="M619.5,98.2c1.1,1.2,1.3,3,0.6,4.8c-0.6,1.5-1.5,2.8-3.4,4.3l-17.3,13.6c-1.9,1.4-3.5,2-5.3,2
					c-3.6,0-5.5-2.4-4.3-5.6c0.5-1.3,1.4-2.6,2.8-3.7l11.4-8.7c-0.6-0.3-2.1-0.4-3.2-0.4c-6.8,0-13.9,5.3-16.4,11.9
					c-2.4,6.6,0.7,11.9,7.6,11.9c3.5,0,6.4-1.3,8.5-2.6c2.5-1.5,4.3-2.8,6.8-2.8c3.7,0,5.6,2.5,4.4,5.9c-0.5,1.2-1.7,2.7-3.4,4l0,0
					c-4.6,3.6-12.3,6.9-20.5,6.9c-14.6,0-21.6-10.2-16.7-23.3c4.8-13,19.3-23.3,34-23.3C612.9,92.9,617.7,95.9,619.5,98.2z"/>
				<path class="st1" d="M572.4,92.9c3.6,0,5.5,2.4,4.3,5.6c-0.5,1.2-1.4,2.5-2.8,3.7l-45.1,35.3c-1.9,1.4-3.5,2-5.6,2
					c-3.7,0-5.6-2.7-4.4-6.2L531.5,99c1.3-3.4,5.2-6.2,8.9-6.2c3.7,0,5.6,2.7,4.4,6.2l-7,18.8l29.2-22.9
					C569,93.5,570.6,92.9,572.4,92.9z"/>
				<path class="st1" d="M522.7,74.4c4.2,0,6.4,3.2,5,7.1s-6,7.1-10.2,7.1s-6.4-3.2-5-7.1S518.5,74.4,522.7,74.4z"/>
				<path class="st1" d="M515.8,92.9c3.7,0,5.6,2.7,4.4,6.2l-12.8,34.3c-1.3,3.4-5.2,6.2-8.9,6.2c-3.7,0-5.6-2.7-4.4-6.2L506.9,99
					C508.1,95.6,512.1,92.9,515.8,92.9z"/>
				<path class="st1" d="M494.1,93.8c3.4,0,5.2,2.5,4.1,5.7c-1.2,3.2-4.9,5.7-8.3,5.7H480l-4.5,12.1c-2.7,7.3,0.4,10.8,5.8,10.8
					c3.4,0,5.2,2.6,4.1,5.7c-1.2,3.2-4.9,5.7-8.3,5.7c-12.8,0-19.9-8.6-14.8-22.3l4.5-12.1h-1.8c-3.4,0-5.2-2.6-4-5.7
					s4.9-5.7,8.3-5.7h1.8l2-5.3c1.3-3.4,5.2-6.2,8.9-6.2c3.7,0,5.6,2.7,4.4,6.2l-2,5.3H494.1z"/>
				<path class="st1" d="M450,92.9c3.7,0,5.6,2.7,4.4,6.2l-12.8,34.4l0,0c-1.3,3.4-5.2,6.2-8.9,6.2c-3,0-4.9-1.8-4.8-4.4
					c-4.9,2.8-10.4,4.4-15.6,4.4c-13.4,0-19.6-10.3-14.8-23.3c4.8-13,18.7-23.3,32.1-23.3c5.2,0,9.5,1.7,12.3,4.4
					C443.7,94.7,447,92.9,450,92.9z M434.7,116.2c2.5-6.8-0.8-11.9-7.5-11.9c-6.8,0-13.9,5.1-16.4,11.9c-2.5,6.9,0.8,11.9,7.6,11.9
					S432.2,123.1,434.7,116.2z"/>
				<path class="st0" d="M427.2,104.3c6.7,0,10,5.1,7.5,11.9c-2.5,6.9-9.5,11.9-16.3,11.9s-10.1-5-7.6-11.9
					C413.4,109.5,420.5,104.3,427.2,104.3z"/>
				<path class="st1" d="M395.9,98.2c1.1,1.2,1.3,3,0.6,4.8c-0.6,1.5-1.5,2.8-3.4,4.3l-17.3,13.6c-1.8,1.4-3.5,2-5.3,2
					c-3.6,0-5.5-2.4-4.3-5.6c0.5-1.3,1.4-2.6,2.8-3.7l11.4-8.7c-0.6-0.3-2.1-0.4-3.2-0.4c-6.8,0-13.9,5.3-16.4,11.9
					c-2.5,6.6,0.7,11.9,7.6,11.9c3.5,0,6.4-1.3,8.4-2.6c2.5-1.5,4.3-2.8,6.8-2.8c3.7,0,5.6,2.5,4.4,5.9c-0.5,1.2-1.7,2.7-3.4,4.1
					l0,0c-4.6,3.6-12.3,6.9-20.5,6.9c-14.6,0-21.6-10.2-16.7-23.3c4.8-13,19.3-23.3,34-23.3C389.3,92.9,394.1,95.9,395.9,98.2z"/>
				<path class="st1" d="M346.6,92.9c3.4,0,5.2,2.6,4,5.7s-4.9,5.7-8.3,5.7c-5.4,0-11.1,3.5-13.8,10.8l-6.8,18.2
					c-1.3,3.4-5.2,6.2-8.9,6.2s-5.6-2.7-4.4-6.2l6.8-18.2C320.4,101.5,333.8,92.9,346.6,92.9z"/>
				<path class="st1" d="M315,85.5c0.8,1.2,0.8,3,0.2,4.5c-1.3,3.6-5.6,6.5-9.5,6.5c-1.9,0-3.4-1-4.8-2.6l0,0c-2.4-3-6.1-5-11.6-5
					c-10.9,0-22.7,8.4-26.6,18.9c-3.9,10.6,1.6,18.9,12.5,18.9c5.5,0,10.7-2,15.4-5c2.5-1.6,4.8-2.6,6.6-2.6c3.9,0,6,2.9,4.7,6.5
					c-0.6,1.5-1.9,3.3-3.6,4.5c-7.9,5.5-17.9,9.3-27.9,9.3c-19.2,0-29.1-14-22.5-31.7c6.6-17.7,26.9-31.7,46.1-31.7
					C304,76.2,311.2,79.9,315,85.5z"/>
			</g>
			<g>
			</g>
		</g>
	</g>
	<g id="XMLID_00000054253337760076807350000006664462794082741647_">
		<g>
			<path class="st0" d="M230,59.2c1,4.6-1.1,9.6-5.4,12.6l-22.2,15.9c-0.2,0.2-0.4,0.4-0.4,0.5l-2.9,23.6c-0.8,6.5-7,11.8-13.6,11.5
				c-2-0.1-3.9-0.7-5.5-1.8L162.4,110l-24.5,10.1c-1.8,0.7-3.6,1.1-5.3,1c-3.6-0.1-6.8-2-8.5-4.9c0-0.1-0.1-0.1-0.1-0.2
				c0-0.1-0.1-0.1-0.1-0.2c0-0.1-0.1-0.1-0.1-0.2c0-0.1-0.1-0.1-0.1-0.2c0-0.1-0.1-0.1-0.1-0.2c0-0.1-0.1-0.1-0.1-0.2
				c0-0.1-0.1-0.1-0.1-0.2c0-0.1-0.1-0.1-0.1-0.2c0-0.1-0.1-0.1-0.1-0.2c0-0.1-0.1-0.1-0.1-0.2c0-0.1-0.1-0.1-0.1-0.2
				c0-0.1-0.1-0.1-0.1-0.2c0-0.1-0.1-0.1-0.1-0.2c0-0.1-0.1-0.1-0.1-0.2c0-0.1-0.1-0.1-0.1-0.2c0-0.1-0.1-0.1-0.1-0.2
				c0-0.1-0.1-0.1-0.1-0.2c0-0.1-0.1-0.1-0.1-0.2c0-0.1-0.1-0.1-0.1-0.2c0-0.1-0.1-0.1-0.1-0.2c0-0.1-0.1-0.1-0.1-0.2
				c0-0.1-0.1-0.1-0.1-0.2c0-0.1-0.1-0.1-0.1-0.2c0-0.1-0.1-0.1-0.1-0.2c0-0.1-0.1-0.1-0.1-0.2c0-0.1-0.1-0.1-0.1-0.2
				c0-0.1-0.1-0.1-0.1-0.2c0-0.1-0.1-0.1-0.1-0.2c0-0.1-0.1-0.1-0.1-0.2c0-0.1-0.1-0.1-0.1-0.2c0-0.1-0.1-0.1-0.1-0.2
				c0-0.1-0.1-0.1-0.1-0.2c0-0.1-0.1-0.1-0.1-0.2c0-0.1-0.1-0.1-0.1-0.2c0-0.1-0.1-0.1-0.1-0.2c0-0.1-0.1-0.1-0.1-0.2
				c0-0.1-0.1-0.1-0.1-0.2c0-0.1-0.1-0.1-0.1-0.2c0-0.1-0.1-0.1-0.1-0.2c0-0.1-0.1-0.1-0.1-0.2c0-0.1-0.1-0.1-0.1-0.2
				c0-0.1-0.1-0.1-0.1-0.2c0-0.1-0.1-0.1-0.1-0.2c0-0.1-0.1-0.1-0.1-0.2c0-0.1-0.1-0.1-0.1-0.2c0-0.1-0.1-0.1-0.1-0.2
				c0-0.1-0.1-0.1-0.1-0.2c0-0.1-0.1-0.1-0.1-0.2c0-0.1-0.1-0.1-0.1-0.2c0-0.1-0.1-0.1-0.1-0.2c0-0.1-0.1-0.1-0.1-0.2
				c0-0.1-0.1-0.1-0.1-0.2c0-0.1-0.1-0.1-0.1-0.2c0-0.1-0.1-0.1-0.1-0.2c0-0.1-0.1-0.1-0.1-0.2c0-0.1-0.1-0.1-0.1-0.2
				c0-0.1-0.1-0.1-0.1-0.2c0-0.1-0.1-0.1-0.1-0.2c0-0.1-0.1-0.1-0.1-0.2c0-0.1-0.1-0.1-0.1-0.2c0-0.1-0.1-0.1-0.1-0.2
				c0-0.1-0.1-0.1-0.1-0.2c-1.9-3.1-2-6.9-0.3-10.4L127.6,73l-4.9-6.8c-0.2-0.2-0.4-0.5-0.5-0.8c-0.1-0.1-0.1-0.2-0.2-0.3
				c-0.1-0.1-0.1-0.2-0.2-0.3c-0.1-0.1-0.1-0.2-0.2-0.3c-0.1-0.1-0.1-0.2-0.2-0.3c-0.1-0.1-0.1-0.2-0.2-0.3
				c-0.1-0.1-0.1-0.2-0.2-0.3c-0.1-0.1-0.1-0.2-0.2-0.3c-0.1-0.1-0.1-0.2-0.2-0.3c-0.1-0.1-0.1-0.2-0.2-0.3
				c-0.1-0.1-0.1-0.2-0.2-0.3c-0.1-0.1-0.1-0.2-0.2-0.3c-0.1-0.1-0.1-0.2-0.2-0.3c-0.1-0.1-0.1-0.2-0.2-0.3
				c-0.1-0.1-0.1-0.2-0.2-0.3c-0.1-0.1-0.1-0.2-0.2-0.3c-0.1-0.1-0.1-0.2-0.2-0.3c-0.1-0.1-0.1-0.2-0.2-0.3
				c-0.1-0.1-0.1-0.2-0.2-0.3c-0.1-0.1-0.1-0.2-0.2-0.3c-0.1-0.1-0.1-0.2-0.2-0.3c-0.1-0.1-0.1-0.2-0.2-0.3
				c-0.1-0.1-0.1-0.2-0.2-0.3c-0.1-0.1-0.1-0.2-0.2-0.3c-0.1-0.1-0.1-0.2-0.2-0.3c-0.1-0.1-0.1-0.2-0.2-0.3
				c-0.1-0.1-0.1-0.2-0.2-0.3c-0.1-0.1-0.1-0.2-0.2-0.3c-0.1-0.1-0.1-0.2-0.2-0.3c-0.1-0.1-0.1-0.2-0.2-0.3
				c-0.1-0.1-0.1-0.2-0.2-0.3c-1.9-3-2.1-6.9-0.5-10.5c2-4.3,6.3-7.5,11-7.9l24.9-2.4c0.1,0,0.5-0.2,0.8-0.5l17-21
				c2.7-3.4,6.8-5.2,10.8-5.1c3.8,0.2,6.9,2.1,8.6,5.1c0.1,0.1,0.1,0.2,0.2,0.3c0.1,0.1,0.1,0.2,0.2,0.3c0.1,0.1,0.1,0.2,0.2,0.3
				c0.1,0.1,0.1,0.2,0.2,0.3c0.1,0.1,0.1,0.2,0.2,0.3c0.1,0.1,0.1,0.2,0.2,0.3c0.1,0.1,0.1,0.2,0.2,0.3c0.1,0.1,0.1,0.2,0.2,0.3
				c0.1,0.1,0.1,0.2,0.2,0.3c0.1,0.1,0.1,0.2,0.2,0.3c0.1,0.1,0.1,0.2,0.2,0.3c0.1,0.1,0.1,0.2,0.2,0.3c0.1,0.1,0.1,0.2,0.2,0.3
				c0.1,0.1,0.1,0.2,0.2,0.3c0.1,0.1,0.1,0.2,0.2,0.3c0.1,0.1,0.1,0.2,0.2,0.3c0.1,0.1,0.1,0.2,0.2,0.3c0.1,0.1,0.1,0.2,0.2,0.3
				c0.1,0.1,0.1,0.2,0.2,0.3c0.1,0.1,0.1,0.2,0.2,0.3c0.1,0.1,0.1,0.2,0.2,0.3c0.1,0.1,0.1,0.2,0.2,0.3c0.1,0.1,0.1,0.2,0.2,0.3
				c0.1,0.1,0.1,0.2,0.2,0.3c0.1,0.1,0.1,0.2,0.2,0.3c0.1,0.1,0.1,0.2,0.2,0.3c0.1,0.1,0.1,0.2,0.2,0.3c0.1,0.1,0.1,0.2,0.2,0.3
				c0.1,0.1,0.1,0.2,0.2,0.3c0.1,0.1,0.1,0.2,0.2,0.3c0.6,1,1.1,2.2,1.4,3.4l2.1,10.7l17,3.3c3.1,0.6,5.6,2.4,7,5
				c0.1,0.1,0.2,0.2,0.2,0.3c0.1,0.1,0.1,0.2,0.2,0.3c0.1,0.1,0.1,0.2,0.2,0.3c0.1,0.1,0.1,0.2,0.2,0.3c0.1,0.1,0.1,0.2,0.2,0.3
				c0.1,0.1,0.2,0.2,0.2,0.3c0.1,0.1,0.1,0.2,0.2,0.3c0.1,0.1,0.2,0.2,0.2,0.3c0.1,0.1,0.1,0.2,0.2,0.3c0.1,0.1,0.2,0.2,0.2,0.3
				c0.1,0.1,0.1,0.2,0.2,0.3c0.1,0.1,0.1,0.2,0.2,0.3c0.1,0.1,0.2,0.2,0.2,0.3c0.1,0.1,0.1,0.2,0.2,0.3c0.1,0.1,0.2,0.2,0.2,0.3
				c0.1,0.1,0.1,0.2,0.2,0.3c0.1,0.1,0.2,0.2,0.2,0.3c0.1,0.1,0.1,0.2,0.2,0.3c0.1,0.1,0.2,0.2,0.2,0.3c0.1,0.1,0.1,0.2,0.2,0.3
				c0.1,0.1,0.1,0.2,0.2,0.3c0.1,0.1,0.2,0.2,0.2,0.3c0.1,0.1,0.1,0.2,0.2,0.3c0.1,0.1,0.1,0.2,0.2,0.3c0.1,0.1,0.1,0.2,0.2,0.3
				c0.1,0.1,0.2,0.2,0.2,0.3c0.1,0.1,0.1,0.2,0.2,0.3c0.1,0.1,0.1,0.2,0.2,0.3c0.1,0.1,0.1,0.2,0.2,0.3c0.1,0.1,0.1,0.2,0.2,0.3
				c0.6,0.9,1,2,1.2,3.1L230,59.2z M214.6,55.9c4.1-3,4-8.5-0.3-9.3l-22.9-4.5c-1.7-0.3-2.9-1.5-3.2-3.1l-4.3-21.9
				c-0.8-4.1-6.6-4.3-9.8-0.4l-17,21c-1.3,1.5-3.1,2.6-5,2.8l-24.9,2.4c-4.7,0.5-8,5.8-5.7,9l12.4,17.4c0.9,1.3,1,3.1,0.1,4.8
				l-11.1,23.4c-2.1,4.4,1.6,7.9,6.2,6l24.7-10.2c1.8-0.8,3.7-0.7,5.1,0.2l18.1,12c3.4,2.2,9-0.9,9.6-5.3l2.9-23.7
				c0.2-1.8,1.3-3.5,3-4.7L214.6,55.9L214.6,55.9z"/>
			<path class="st1" d="M214.3,46.6c4.3,0.8,4.4,6.3,0.3,9.3l0,0l-22.2,15.9c-1.7,1.2-2.8,2.9-3,4.7l-2.9,23.7
				c-0.5,4.4-6.2,7.6-9.6,5.3l-18.1-12c-1.3-0.9-3.2-1-5.1-0.2l-24.7,10.2c-4.6,1.9-8.3-1.7-6.2-6l11.1-23.4
				c0.8-1.7,0.8-3.5-0.1-4.8l-12.4-17.4c-2.3-3.2,1.1-8.6,5.7-9l24.9-2.4c1.9-0.2,3.7-1.2,5-2.8l17-21c3.2-3.9,8.9-3.7,9.8,0.4
				l4.3,21.9c0.3,1.6,1.5,2.8,3.2,3.1L214.3,46.6z"/>
		</g>
		<g>
		</g>
	</g>
	<g>
		<path class="st0" d="M356.2,163.8c2.6,4.1,3,9.5,1,15.1c-1.8,5.3-5.2,9.9-10.3,14.3l-4.2,3.6c0.1,0.1,0.1,0.2,0.2,0.3
			c0.1,0.1,0.2,0.3,0.3,0.4l0.3,0.4c0.1,0.1,0.2,0.3,0.3,0.4s0.2,0.3,0.3,0.4s0.2,0.3,0.3,0.4c0.1,0.1,0.2,0.3,0.3,0.4l0.3,0.4
			c0.1,0.1,0.2,0.3,0.3,0.4c2.6,3.8,3.1,9.1,1,15c-1.7,4.9-5.4,9.9-10.4,14c-10.5,8.8-25.2,14.3-38.6,14.3s-23.3-5.3-28.7-13.8
			c-0.1-0.1-0.2-0.3-0.3-0.4c-0.1-0.1-0.2-0.3-0.3-0.4s-0.2-0.3-0.3-0.4s-0.2-0.3-0.3-0.4s-0.2-0.3-0.3-0.4
			c-0.1-0.1-0.2-0.3-0.3-0.4c-0.1-0.1-0.2-0.3-0.3-0.4s-0.2-0.3-0.3-0.4s-0.2-0.3-0.3-0.4s-0.2-0.3-0.3-0.4l-0.3-0.4
			c-0.1-0.1-0.2-0.3-0.3-0.4c-0.1-0.1-0.1-0.3-0.2-0.4c-11.9,11.8-27.6,19.3-42.7,19.3c-5.6,0-10.7-1-15-3c-3.9,1.9-8.1,3-12.1,3
			c-5.9,0-10.5-2.4-13.1-6.2c-0.1-0.1-0.2-0.3-0.3-0.4s-0.2-0.3-0.3-0.4c-0.1-0.1-0.2-0.2-0.2-0.4c-5.6,4.6-12.4,7.5-19,7.5
			c-4,0-7.5-1.1-10.1-3c-5.7,2-11.4,3-17,3c-12.6,0-21.9-5.3-26.9-13.8c-0.1-0.1-0.2-0.3-0.3-0.4c-0.1-0.1-0.2-0.3-0.3-0.4
			s-0.2-0.3-0.3-0.4c-0.1-0.1-0.2-0.3-0.3-0.4c-0.1-0.1-0.2-0.3-0.3-0.4l-0.3-0.4c-0.1-0.1-0.2-0.3-0.3-0.4
			c-0.1-0.1-0.2-0.3-0.3-0.4c-0.1-0.1-0.2-0.3-0.3-0.4c-0.1-0.1-0.2-0.3-0.3-0.4l-0.3-0.4c-0.1-0.1-0.2-0.3-0.3-0.4
			c-0.1-0.1-0.2-0.3-0.3-0.4s-0.2-0.3-0.3-0.4c-0.1-0.1-0.2-0.3-0.3-0.4l-0.3-0.4c-0.1-0.1-0.2-0.3-0.3-0.4
			c-0.1-0.1-0.2-0.3-0.3-0.4s-0.2-0.3-0.3-0.4l0,0c-14.6,12.8-33.7,21.9-52.9,21.9c-16.5,0-29-6.5-35.8-17.1
			c-0.1-0.1-0.2-0.3-0.3-0.4s-0.2-0.3-0.3-0.4c-0.1-0.1-0.2-0.3-0.3-0.4l-0.3-0.4c-0.1-0.1-0.2-0.3-0.3-0.4s-0.2-0.3-0.3-0.4
			c-0.1-0.1-0.2-0.3-0.3-0.4c-0.1-0.1-0.2-0.3-0.3-0.4l-0.3-0.4c-0.1-0.1-0.2-0.3-0.3-0.4s-0.2-0.3-0.3-0.4
			c-0.1-0.1-0.2-0.3-0.3-0.4s-0.2-0.3-0.3-0.4c-0.1-0.1-0.2-0.3-0.3-0.4l-0.3-0.4c-0.1-0.1-0.2-0.3-0.3-0.4s-0.2-0.3-0.3-0.4
			s-0.2-0.3-0.3-0.4s-0.2-0.3-0.3-0.4c-0.1-0.1-0.2-0.3-0.3-0.4c-0.1-0.1-0.2-0.3-0.3-0.4s-0.2-0.3-0.3-0.4s-0.2-0.3-0.3-0.4
			s-0.2-0.3-0.3-0.4l-0.3-0.4c-0.1-0.1-0.2-0.3-0.3-0.4s-0.2-0.3-0.3-0.4s-0.2-0.3-0.3-0.4c-0.1-0.1-0.2-0.3-0.3-0.4L6.5,214
			c-6.9-10.4-8.3-24.9-2.7-41.2c11.2-32.5,45.7-57.9,78.4-57.9c15.8,0,28.8,6.3,35.7,17.2c0.1,0.1,0.1,0.1,0.1,0.2c0,0,0,0,0,0.1
			c0.1,0.1,0.1,0.1,0.1,0.2c0.1,0.1,0.1,0.1,0.1,0.2c0,0,0,0,0,0c0.1,0.1,0.1,0.1,0.1,0.2c0.1,0.1,0.1,0.1,0.1,0.2c0,0,0,0.1,0,0.1
			c0.1,0.1,0.1,0.1,0.1,0.2c0,0.1,0.1,0.1,0.1,0.2v0.1c0.1,0.1,0.1,0.1,0.1,0.2c0.1,0.1,0.1,0.1,0.1,0.2c0,0,0,0,0,0.1
			c0,0.1,0.1,0.1,0.1,0.2c0.1,0.1,0.1,0.1,0.1,0.2l0,0c0.1,0.1,0.1,0.1,0.1,0.2c0.1,0.1,0.1,0.1,0.1,0.2c0,0,0,0.1,0,0.1
			c0.1,0.1,0.1,0.1,0.1,0.2c0.1,0.1,0.1,0.1,0.1,0.2c0,0,0,0.1,0,0.1c0.1,0.1,0.1,0.1,0.1,0.2c0,0.1,0.1,0.1,0.1,0.2v0.1
			c0,0,0.1,0.1,0.1,0.2c0.1,0.1,0.1,0.1,0.1,0.2c0,0,0,0,0,0c0,0.1,0.1,0.1,0.1,0.2c0.1,0.1,0.1,0.1,0.1,0.2c0,0,0,0,0,0
			c0.1,0.1,0.1,0.1,0.1,0.2s0.1,0.1,0.1,0.2c0,0,0,0,0,0.1c0.1,0.1,0.1,0.1,0.1,0.2c0.1,0.1,0.1,0.1,0.1,0.2c0,0,0,0.1,0,0.1
			c0,0,0.1,0.1,0.1,0.2c0,0.1,0.1,0.1,0.1,0.2v0.1c0,0,0.1,0.1,0.1,0.2c0,0.1,0.1,0.1,0.1,0.2c0,0,0,0,0,0c0,0.1,0.1,0.1,0.1,0.2
			c0.1,0.1,0.1,0.1,0.1,0.2c0,0,0,0.1,0,0.1c0,0.1,0.1,0.1,0.1,0.2s0.1,0.1,0.1,0.2c0,0,0,0,0,0.1c0.1,0.1,0.1,0.1,0.1,0.2
			c0.1,0.1,0.1,0.1,0.1,0.2c0,0,0,0,0,0.1c0.1,0.1,0.1,0.1,0.1,0.2c0,0.1,0.1,0.1,0.1,0.2c0,0,0,0,0,0c0.1,0.1,0.1,0.1,0.1,0.2
			c0,0.1,0.1,0.1,0.1,0.2v0c0.1,0.1,0.1,0.1,0.1,0.2s0.1,0.1,0.1,0.2c0,0,0,0.1,0,0.1c0,0.1,0.1,0.1,0.1,0.2s0.1,0.1,0.1,0.2
			c0,0,0,0,0,0.1c0.1,0.1,0.1,0.1,0.1,0.2c0.1,0.1,0.1,0.1,0.1,0.2c0,0,0,0,0,0c0.1,0.1,0.1,0.1,0.1,0.2c0.1,0.1,0.1,0.1,0.1,0.2
			c0,0,0,0,0,0c0.1,0.1,0.1,0.1,0.1,0.2c0,0.1,0.1,0.1,0.1,0.2v0.1c0.1,0.1,0.1,0.1,0.1,0.2s0.1,0.1,0.1,0.2c0,0,0,0.1,0,0.1
			c0,0.1,0.1,0.1,0.1,0.2c0.1,0.1,0.1,0.1,0.1,0.2c0,0,0,0,0,0.1c0.1,0.1,0.1,0.1,0.1,0.2c0.1,0.1,0.1,0.1,0.1,0.2l0,0
			c0.1,0.1,0.1,0.1,0.1,0.2c0.1,0.1,0.1,0.1,0.1,0.2c0,0,0,0.1,0,0.1c0.1,0.1,0.1,0.1,0.1,0.2c0,0.1,0.1,0.1,0.1,0.2v0.1
			c0.1,0.1,0.1,0.1,0.1,0.2s0.1,0.1,0.1,0.2c0,0,0,0.1,0,0.1c0,0,0.1,0.1,0.1,0.2c0.1,0.1,0.1,0.1,0.1,0.2c0.6,1,1.1,2.1,1.4,3.4
			c9.7-6.3,20.6-10.1,31.2-10.1c5.5,0,10.5,1,14.9,3c4-2,8.2-3,12.2-3s7.5,1.1,10,3l1.8-5.3c4.1-11.9,17.2-21.6,29.1-21.6
			c6.1,0,10.8,2.5,13.3,6.6c0.1,0.1,0.2,0.3,0.3,0.4c0.1,0.1,0.2,0.3,0.3,0.4l0.3,0.4c0.1,0.1,0.2,0.3,0.3,0.4s0.2,0.3,0.3,0.4
			s0.2,0.3,0.3,0.4c0.1,0.1,0.2,0.3,0.3,0.4c0.1,0.1,0.2,0.3,0.3,0.4s0.2,0.3,0.3,0.4s0.2,0.3,0.3,0.4s0.2,0.3,0.3,0.4
			s0.2,0.3,0.3,0.4c0.1,0.1,0.2,0.3,0.3,0.4s0.2,0.3,0.3,0.4s0.2,0.3,0.3,0.4s0.2,0.3,0.3,0.4c0.1,0.1,0.2,0.3,0.3,0.4l0.3,0.4
			c0.1,0.1,0.2,0.3,0.3,0.4s0.2,0.3,0.3,0.4s0.2,0.3,0.3,0.4c0.1,0.1,0.2,0.3,0.3,0.4c0.1,0.1,0.2,0.3,0.3,0.4l0.3,0.4
			c0.1,0.1,0.2,0.3,0.3,0.4c0.1,0.1,0.2,0.3,0.3,0.4s0.2,0.3,0.3,0.4c0.1,0.1,0.2,0.3,0.3,0.4l0.3,0.4c0.1,0.1,0.2,0.3,0.3,0.4
			c0.9,1.4,1.6,3,2,4.7c10.2,1.1,17.9,6,22.3,13.4l0.3,0.4c0.1,0.1,0.2,0.3,0.3,0.4s0.2,0.3,0.3,0.4s0.2,0.3,0.3,0.4
			c0.1,0.1,0.2,0.3,0.3,0.4l0.3,0.4c0.1,0.1,0.2,0.3,0.3,0.4c0.1,0.1,0.2,0.3,0.3,0.4s0.2,0.3,0.3,0.4c0.1,0.1,0.2,0.3,0.3,0.4
			l0.3,0.4c0.1,0.1,0.2,0.3,0.3,0.4c0.1,0.1,0.2,0.3,0.3,0.4c12.4-11.7,28.7-19.1,44.6-19.1c13.6,0,22.6,5.6,26.6,10.8
			c0.4,0.6,0.8,1.2,1.2,1.8c0.1,0.1,0.1,0.2,0.2,0.3c0.1,0.1,0.2,0.3,0.3,0.4c0.1,0.1,0.2,0.3,0.3,0.4c0.1,0.1,0.2,0.3,0.3,0.4
			c0.1,0.1,0.2,0.3,0.3,0.4l0.3,0.4c0.1,0.1,0.2,0.3,0.3,0.4c0.1,0.1,0.2,0.3,0.3,0.4c0.1,0.1,0.2,0.3,0.3,0.4
			c0.1,0.1,0.2,0.3,0.3,0.4l0.3,0.4c0.1,0.1,0.2,0.3,0.3,0.4c0.1,0.1,0.2,0.3,0.3,0.4c0.1,0.1,0.2,0.3,0.3,0.4
			c0.1,0.1,0.2,0.3,0.3,0.4c0.1,0.1,0.2,0.3,0.3,0.4c0.1,0.1,0.2,0.3,0.3,0.4c0.1,0.1,0.2,0.3,0.3,0.4c0.1,0.1,0.2,0.3,0.3,0.4
			c0.1,0.1,0.2,0.3,0.3,0.4c0.1,0.1,0.2,0.3,0.3,0.4l0.3,0.4c0.1,0.1,0.2,0.3,0.3,0.4c0.1,0.1,0.2,0.3,0.3,0.4
			c0.1,0.1,0.2,0.3,0.3,0.4c0.1,0.1,0.2,0.3,0.3,0.4l0.3,0.4c0.1,0.1,0.2,0.3,0.3,0.4c0.1,0.1,0.2,0.3,0.3,0.4
			c0,0.1,0.1,0.2,0.2,0.3L356.2,163.8z M336.1,165.8c0.9-2.5,0.6-5-0.8-6.8c-2.4-3.2-8.7-7.5-19.1-7.5c-19.5,0-38.7,14.7-45.1,33.2
			c-6.5,18.7,2.8,33.2,22.2,33.2c10.9,0,21.1-4.6,27.2-9.8c2.3-1.9,3.9-4,4.5-5.8c1.7-4.9-0.9-8.4-5.8-8.4c-3.4,0-5.8,1.9-9.1,4
			c-2.8,1.8-6.5,3.6-11.2,3.6c-9.1,0-13.3-7.5-10-16.9c3.2-9.4,12.8-16.9,21.8-16.9c1.4,0,3.4,0.2,4.2,0.6l-15.1,12.4
			c-1.9,1.5-3.1,3.4-3.7,5.3c-1.6,4.6,0.9,8,5.7,8c2.4,0,4.6-0.9,7-2.9l22.9-19.3C334.1,169.8,335.4,167.9,336.1,165.8L336.1,165.8z
			 M261,184.7c6.4-18.6-1.9-33.2-19.6-33.2c-6.9,0-14,2.3-20.3,6l7.3-21.1c1.7-4.9-0.9-8.8-5.8-8.8s-10.2,3.9-11.9,8.8l-25.1,72.7
			c-1.7,4.9,0.9,8.8,5.8,8.8c4,0,8.3-2.6,10.6-6.3c3.8,4,9.4,6.3,16.5,6.3C236.2,218,254.6,203.3,261,184.7L261,184.7z M187.3,160.3
			c1.7-4.9-0.9-8.8-5.8-8.8c-4,0-8.3,2.6-10.7,6.3c-3.8-3.9-9.4-6.3-16.4-6.3c-17.8,0-36.2,14.7-42.6,33.2
			c-6.4,18.6,1.9,33.2,19.6,33.2c6.9,0,14.1-2.2,20.7-6.3c-0.1,3.6,2.4,6.3,6.4,6.3c4.9,0,10.2-3.9,11.9-8.8L187.3,160.3
			L187.3,160.3z M106,176c2-5.5-0.5-9.4-5.4-9.4H70c-4.9,0-10.2,3.9-11.9,8.8c-1.7,4.9,0.9,8.8,5.8,8.8h17.9
			c-8.3,10.4-19.5,15.7-29.1,15.7c-14.5,0-21.9-11.9-16.6-27c5.2-15,20.8-27,35.3-27c7.3,0,12.2,2.9,15.4,7.1
			c1.6,2.3,3.8,3.7,6.3,3.7c5.2,0,10.9-4.2,12.7-9.3c0.7-2.1,0.7-4.6-0.3-6.4c-5-7.9-14.6-13.3-27.8-13.3c-25.5,0-52.4,20-61.1,45.2
			C7.8,198,21,218,46.4,218S98.5,195.9,106,176L106,176z"/>
		<path class="st1" d="M335.3,159c1.4,1.8,1.7,4.3,0.8,6.8c-0.7,2.1-2,4-4.5,6.1l-22.9,19.3c-2.5,2-4.7,2.9-7,2.9
			c-4.8,0-7.3-3.4-5.7-8c0.6-1.9,1.8-3.8,3.7-5.3l15.1-12.4c-0.7-0.4-2.8-0.6-4.2-0.6c-9,0-18.5,7.5-21.8,16.9
			c-3.2,9.4,1,16.9,10,16.9c4.7,0,8.5-1.9,11.2-3.6c3.2-2.1,5.7-4,9.1-4c4.9,0,7.5,3.5,5.8,8.4c-0.6,1.7-2.2,3.9-4.5,5.8
			c-6,5.1-16.4,9.8-27.2,9.8c-19.4,0-28.6-14.5-22.2-33.2c6.4-18.6,25.6-33.2,45.1-33.2C326.5,151.5,332.9,155.7,335.3,159
			L335.3,159z"/>
		<path class="st1" d="M241.3,151.5c17.8,0,26,14.7,19.6,33.2c-6.4,18.6-24.8,33.2-42.6,33.2c-7.1,0-12.7-2.2-16.5-6.3
			c-2.3,3.6-6.6,6.3-10.6,6.3c-4.9,0-7.5-3.9-5.8-8.8l25.1-72.7c1.7-4.9,7-8.8,11.9-8.8s7.5,3.9,5.8,8.8l-7.3,21.1
			C227.3,153.8,234.4,151.5,241.3,151.5L241.3,151.5z M243.2,184.7c3.3-9.7-1.1-16.9-10-16.9s-17.9,7-21.4,16.3l-0.5,1.4
			c-3,9.4,1.5,16.2,10.2,16.2S239.8,194.5,243.2,184.7z"/>
		<path class="st0" d="M233.2,167.8c8.9,0,13.4,7.3,10,16.9c-3.4,9.8-12.8,16.9-21.7,16.9s-13.2-6.8-10.2-16.2l0.5-1.4
			C215.3,174.8,224.5,167.8,233.2,167.8z"/>
		<path class="st1" d="M181.5,151.5c4.9,0,7.5,3.9,5.8,8.8l-16.9,48.9c-1.7,4.9-7,8.8-11.9,8.8c-4,0-6.5-2.6-6.4-6.3
			c-6.6,4-13.8,6.3-20.7,6.3c-17.8,0-26.1-14.6-19.7-33.2c6.4-18.6,24.9-33.2,42.6-33.2c6.9,0,12.6,2.4,16.4,6.3
			C173.1,154.2,177.4,151.5,181.5,151.5L181.5,151.5z M161.2,184.7c3.4-9.7-1.1-16.9-9.9-16.9s-18.4,7.3-21.7,16.9
			c-3.4,9.8,1.1,16.9,10,16.9S157.8,194.5,161.2,184.7L161.2,184.7z"/>
		<path class="st0" d="M151.3,167.8c8.8,0,13.2,7.3,9.9,16.9c-3.4,9.8-12.8,16.9-21.6,16.9s-13.4-7.1-10-16.9
			C132.9,175.1,142.3,167.8,151.3,167.8L151.3,167.8z"/>
		<path class="st1" d="M100.5,166.5c4.9,0,7.5,3.9,5.4,9.4c-7.4,19.9-33.4,42-59.5,42S7.9,198,16.6,172.8
			c8.7-25.2,35.6-45.2,61.1-45.2c13.2,0,22.8,5.4,27.8,13.3c1,1.7,1,4.2,0.3,6.4c-1.8,5.1-7.5,9.3-12.7,9.3c-2.5,0-4.7-1.4-6.3-3.7
			c-3.2-4.2-8.1-7.1-15.4-7.1c-14.5,0-30.1,11.9-35.3,27c-5.2,15.1,2.2,27,16.6,27c9.6,0,20.8-5.3,29.1-15.7H64
			c-4.9,0-7.5-3.9-5.8-8.8c1.7-4.9,7-8.8,11.9-8.8L100.5,166.5L100.5,166.5z"/>
	</g>
	<g>
		<path class="st0" d="M503,159.7c1.6,2.3,2,5.6,0.9,9.1c-2,6.2-8.2,11.4-14.6,12.6l-6.4,19.6c-2.4,7.3-10.2,13.2-17.6,13.2
			c-3.8,0-6.7-1.6-8.3-4.1c-0.1-0.1-0.1-0.2-0.2-0.3c-0.1-0.1-0.1-0.2-0.2-0.3c-0.1-0.1-0.1-0.2-0.2-0.3c-0.1-0.1-0.1-0.2-0.2-0.3
			c-0.1-0.1-0.1-0.2-0.2-0.3c0-0.1-0.1-0.2-0.2-0.3c0-0.1-0.1-0.2-0.2-0.3c0-0.1-0.1-0.2-0.2-0.3c0-0.1-0.1-0.2-0.2-0.3l-0.1-0.3
			c-0.1-0.1-0.1-0.2-0.2-0.3c-0.1-0.1-0.1-0.2-0.2-0.3c-0.1-0.1-0.1-0.2-0.2-0.3c-0.1-0.1-0.1-0.2-0.2-0.3s-0.1-0.2-0.2-0.3
			c0-0.1-0.1-0.2-0.2-0.3c0-0.1-0.1-0.2-0.2-0.3c0-0.1-0.1-0.2-0.2-0.3c0-0.1-0.1-0.2-0.1-0.3c-0.1-0.1-0.1-0.2-0.2-0.3
			c-1.5-2.1-2-5.1-1.2-8.3c-2.4,1-5,1.8-7.5,2.1l-0.8,2.5c-2.4,7.3-10.2,13.2-17.6,13.2c-2.8,0-5.1-0.9-6.8-2.3
			c-2.3,1.1-4.8,1.8-7.2,1.8h-14.8c-3.8,0-6.7-1.6-8.3-4.1c-0.1-0.1-0.1-0.2-0.2-0.3c-0.1-0.1-0.1-0.2-0.2-0.3
			c-0.1-0.1-0.1-0.2-0.2-0.3c0-0.1-0.1-0.2-0.2-0.3c0-0.1-0.1-0.2-0.2-0.3c0-0.1-0.1-0.2-0.2-0.3c0-0.1-0.1-0.2-0.2-0.3
			c0-0.1-0.1-0.2-0.1-0.3c0-0.1-0.1-0.1-0.1-0.1c-6.4,4-13.8,6.4-21.3,6.4h-10c-3.8,0-6.7-1.6-8.3-4.1c-0.1-0.1-0.1-0.2-0.2-0.3
			c-0.1-0.1-0.1-0.2-0.2-0.3c-0.1-0.1-0.1-0.2-0.2-0.3c0-0.1-0.1-0.2-0.2-0.3c0-0.1-0.1-0.2-0.2-0.3c0-0.1-0.1-0.2-0.2-0.3
			c0-0.1-0.1-0.2-0.1-0.3c-0.1-0.1-0.1-0.2-0.2-0.3c-0.1-0.1-0.1-0.2-0.2-0.3c-0.1-0.1-0.1-0.2-0.2-0.3c-0.1-0.1-0.1-0.2-0.2-0.3
			c-0.1-0.1-0.1-0.2-0.2-0.3s-0.1-0.2-0.2-0.3c0-0.1-0.1-0.2-0.2-0.3c0-0.1-0.1-0.2-0.2-0.3c0-0.1-0.1-0.2-0.2-0.3
			c0-0.1-0.1-0.2-0.1-0.3c-0.1-0.1-0.1-0.2-0.2-0.3c-0.1-0.1-0.1-0.2-0.2-0.3c-0.1-0.1-0.1-0.2-0.2-0.3c-1.6-2.4-2.1-5.7-0.9-9.3
			l10.2-31.4c2.3-7.2,10.2-13.1,17.6-13.1h10c7.6,0,13.5,2.4,17.3,6.6c3.6-3.9,8.8-6.6,13.7-6.6h14.8c2.6,0,4.8,0.7,6.4,2.1
			c2.5-1.3,5.2-2.1,7.8-2.1h9.7c3.9,0,7.1,0.9,9.8,2.5c2.7-1.6,5.6-2.5,8.5-2.5h21.5c3.7,0,6.6,1.6,8.1,4c0.1,0.1,0.1,0.2,0.2,0.3
			c0.1,0.1,0.1,0.2,0.2,0.3c0.1,0.1,0.1,0.2,0.2,0.3c0.1,0.1,0.1,0.2,0.2,0.3c0,0.1,0.1,0.2,0.2,0.3c0,0.1,0.1,0.2,0.2,0.3
			c0,0.1,0.1,0.2,0.2,0.3l0.1,0.3c0.1,0.1,0.1,0.2,0.2,0.3c0.1,0.1,0.1,0.2,0.2,0.3c0.1,0.1,0.1,0.2,0.2,0.3
			c0.1,0.1,0.1,0.2,0.2,0.3c0.1,0.1,0.1,0.2,0.2,0.3s0.1,0.2,0.2,0.3c0,0.1,0.1,0.2,0.2,0.3c0,0.1,0.1,0.2,0.2,0.3
			c0,0.1,0.1,0.2,0.2,0.3l0.1,0.3c0.1,0.1,0.1,0.2,0.2,0.3C502.8,159.5,502.9,159.6,503,159.7L503,159.7z M491.4,163.1
			c0.7-2.2-0.5-4-2.8-4h-21.6c-2.2,0-4.6,1.8-5.3,4c-0.7,2.2,0.5,4,2.8,4h6.4l-9.2,28.3c-0.8,2.3,0.6,4.3,3,4.3s5-1.9,5.7-4.3
			l9.2-28.3h6.4C488.3,167.1,490.7,165.3,491.4,163.1L491.4,163.1z M458.1,171.7c2.2-6.9-1.4-12.6-9.2-12.6h-9.7
			c-2.4,0-5,1.9-5.7,4.3l-10.4,32c-0.8,2.3,0.6,4.3,2.9,4.3s5-1.9,5.7-4.3l5-15.5l1,0.3c-0.7,2.2,0.5,4,2.8,4h0.2
			C448.6,184.2,455.9,178.6,458.1,171.7L458.1,171.7z M427.7,163.1c0.7-2.2-0.5-4-2.8-4h-14.8c-2.4,0-5,1.9-5.7,4.3l-10.2,31.4
			c-0.8,2.3,0.6,4.3,2.9,4.3H412c2.3,0,4.6-1.8,5.4-4c0.7-2.2-0.5-4-2.8-4h-10.5l2.6-8h10.5c2.2,0,4.6-1.8,5.4-4
			c0.7-2.2-0.5-4-2.8-4h-10.5l2.6-8h10.5C424.6,167.1,427,165.3,427.7,163.1L427.7,163.1z M393.5,179.1c3.6-11.1-1.9-20-14.4-20
			h-9.9c-2.4,0-5,1.9-5.7,4.3l-10.2,31.4c-0.7,2.3,0.6,4.3,3,4.3h10C378.6,199.1,389.9,190.2,393.5,179.1L393.5,179.1z"/>
		<path class="st1" d="M488.7,159.1c2.2,0,3.5,1.8,2.8,4s-3.1,4-5.4,4h-6.4l-9.2,28.3c-0.8,2.3-3.4,4.3-5.7,4.3s-3.7-1.9-3-4.3
			l9.2-28.3h-6.4c-2.3,0-3.5-1.8-2.8-4c0.7-2.2,3.1-4,5.3-4H488.7L488.7,159.1z"/>
		<path class="st1" d="M448.9,159.1c7.9,0,11.5,5.6,9.2,12.6c-2.2,6.9-9.5,12.6-17.4,12.6h-0.2c-2.2,0-3.5-1.8-2.8-4s3.1-4,5.4-4
			c2.5-0.1,5.2-2.1,6-4.6c0.8-2.5-0.6-4.6-3.1-4.6h-5.1l-4.2,12.8l-5,15.5c-0.8,2.3-3.4,4.3-5.7,4.3s-3.7-1.9-2.9-4.3l10.4-32
			c0.8-2.3,3.4-4.3,5.7-4.3H448.9L448.9,159.1z"/>
		<path class="st0" d="M446,167.1c2.5,0,3.9,2.1,3.1,4.6c-0.8,2.5-3.5,4.5-6,4.6c-2.2,0-4.6,1.8-5.4,4l-1-0.3l4.2-12.8L446,167.1
			L446,167.1z"/>
		<path class="st1" d="M425,159.1c2.2,0,3.5,1.8,2.8,4c-0.7,2.2-3.1,4-5.4,4h-10.5l-2.6,8h10.5c2.2,0,3.5,1.8,2.8,4
			c-0.7,2.2-3.1,4-5.4,4h-10.5l-2.6,8h10.5c2.3,0,3.5,1.8,2.8,4c-0.7,2.2-3.1,4-5.4,4h-14.8c-2.4,0-3.7-1.9-2.9-4.3l10.2-31.4
			c0.8-2.3,3.4-4.3,5.7-4.3L425,159.1L425,159.1z"/>
		<path class="st1" d="M379.1,159.1c12.5,0,18,8.8,14.4,20c-3.6,11.1-14.9,20-27.4,20h-10c-2.4,0-3.7-1.9-3-4.3l10.2-31.4
			c0.8-2.3,3.4-4.3,5.7-4.3L379.1,159.1L379.1,159.1z M384.5,179.1c2.1-6.7-0.6-12-8-12h-5.6l-7.8,24h5.6
			C376.2,191.1,382.4,185.8,384.5,179.1z"/>
		<path class="st0" d="M376.5,167.1c7.5,0,10.2,5.3,8,12c-2.2,6.7-8.4,12-15.9,12h-5.6l7.8-24H376.5z"/>
	</g>
	<path class="st2" d="M683.1,67.4c-27.8,4-29.4,7.3-31.3,65.9c-1.9-58.6-3.5-61.8-31.3-65.9c27.8-4,29.4-7.3,31.3-65.9
		C653.7,60.1,655.3,63.3,683.1,67.4z"/>
	<path class="st2" d="M694.1,118.2c-12.3,1.8-13,3.2-13.8,29.1c-0.8-25.8-1.5-27.3-13.8-29.1c12.3-1.8,13-3.2,13.8-29.1
		C681.1,115,681.8,116.4,694.1,118.2z"/>
</g>
</svg>
