<?xml version="1.0" encoding="utf-8"?>
<!-- Generator: Adobe Illustrator 27.3.1, SVG Export Plug-In . SVG Version: 6.00 Build 0)  -->
<svg version="1.1" xmlns="http://www.w3.org/2000/svg" xmlns:xlink="http://www.w3.org/1999/xlink" x="0px" y="0px"
	 viewBox="0 0 595.28 841.89" style="enable-background:new 0 0 595.28 841.89;" xml:space="preserve">
<style type="text/css">
	.st0{fill:#F1F2F2;}
</style>
<g id="Layer_1">
	<path class="st0" d="M295.21,343.49c-0.17-0.25-0.35-0.49-0.53-0.73c-0.03-0.05-0.07-0.09-0.1-0.13c-0.03-0.05-0.07-0.09-0.1-0.13
		c-0.03-0.04-0.07-0.09-0.1-0.13c-0.03-0.05-0.07-0.09-0.1-0.13c-0.03-0.04-0.07-0.09-0.1-0.13c-0.03-0.05-0.07-0.09-0.1-0.13
		c-0.03-0.04-0.07-0.09-0.1-0.13c-0.03-0.05-0.07-0.09-0.1-0.13c-0.03-0.04-0.07-0.09-0.1-0.13c-0.03-0.05-0.07-0.09-0.1-0.13
		c-0.03-0.04-0.07-0.09-0.1-0.13c-0.03-0.05-0.07-0.09-0.1-0.13c-0.03-0.05-0.07-0.09-0.1-0.13c-0.03-0.05-0.07-0.09-0.1-0.13
		c-0.03-0.05-0.07-0.09-0.1-0.13c-0.03-0.04-0.07-0.09-0.1-0.13c-0.03-0.05-0.07-0.09-0.1-0.13c-0.03-0.05-0.07-0.09-0.1-0.13
		c-0.03-0.05-0.07-0.09-0.1-0.13c-0.03-0.04-0.07-0.09-0.1-0.13c-0.03-0.05-0.07-0.09-0.1-0.13c-0.03-0.05-0.07-0.09-0.1-0.13
		c-0.03-0.04-0.07-0.09-0.1-0.13c-0.03-0.05-0.07-0.09-0.1-0.13c-0.03-0.04-0.07-0.09-0.1-0.13c-0.03-0.05-0.07-0.09-0.1-0.13
		c-0.03-0.04-0.07-0.09-0.1-0.13c-0.03-0.05-0.07-0.09-0.1-0.13c-0.03-0.04-0.07-0.09-0.1-0.13c-0.03-0.05-0.07-0.09-0.1-0.13
		c-2.4-3.17-5.83-4.9-9.75-4.9h-38.71c-6.73,0-13.02,5.19-15.64,12.91l-2.99,8.77c-1.94-1.3-4.22-1.98-6.68-1.98h-7.97l4.18-12.28
		c1.44-4.24,1-8.7-1.18-11.92c-0.23-0.34-0.47-0.65-0.73-0.95c-0.04-0.04-0.07-0.09-0.1-0.13c-0.04-0.04-0.07-0.09-0.1-0.13
		c-0.04-0.04-0.07-0.09-0.1-0.13c-0.04-0.04-0.07-0.09-0.1-0.13c-0.04-0.04-0.07-0.09-0.1-0.13c-0.04-0.04-0.07-0.09-0.1-0.13
		c-0.04-0.04-0.07-0.09-0.1-0.13c-0.04-0.04-0.07-0.09-0.1-0.13c-0.04-0.04-0.07-0.09-0.1-0.13c-0.04-0.04-0.07-0.09-0.1-0.13
		c-0.04-0.04-0.07-0.09-0.1-0.13c-0.04-0.04-0.07-0.09-0.1-0.13c-0.04-0.04-0.07-0.09-0.1-0.13c-0.04-0.04-0.07-0.09-0.1-0.13
		c-0.04-0.04-0.07-0.09-0.1-0.13c-0.04-0.04-0.07-0.09-0.1-0.13c-0.04-0.04-0.07-0.09-0.1-0.13c-0.04-0.04-0.07-0.09-0.1-0.13
		c-0.04-0.04-0.07-0.09-0.1-0.13c-0.04-0.04-0.07-0.09-0.1-0.13c-0.04-0.04-0.07-0.09-0.1-0.13c-0.04-0.04-0.07-0.09-0.1-0.13
		c-0.04-0.04-0.07-0.09-0.1-0.13c-0.04-0.04-0.07-0.09-0.1-0.13c-0.04-0.04-0.07-0.09-0.1-0.13c-0.04-0.04-0.07-0.09-0.1-0.13
		c-0.04-0.04-0.07-0.09-0.1-0.13c-0.04-0.04-0.07-0.09-0.1-0.13c-0.04-0.04-0.07-0.09-0.1-0.13c-0.04-0.04-0.07-0.09-0.1-0.13
		c-1.82-2.17-4.43-3.4-7.32-3.4h-11.5c-6.07,0-11.91,4.31-14.88,10.98c-0.3,0.66-0.54,1.29-0.76,1.92l-0.86,2.52
		c-2.11-1.67-4.67-2.56-7.47-2.56h-38.71c-1.04,0-2.06,0.13-3.07,0.37c-0.26-1.84-0.89-3.56-1.88-5.03
		c-0.23-0.34-0.47-0.66-0.74-0.96c-0.04-0.04-0.07-0.09-0.1-0.13c-0.04-0.04-0.07-0.09-0.1-0.13c-0.04-0.04-0.07-0.09-0.1-0.13
		c-0.04-0.04-0.07-0.09-0.1-0.13c-0.04-0.04-0.07-0.09-0.1-0.13c-0.04-0.04-0.07-0.09-0.1-0.13c-0.04-0.04-0.07-0.09-0.1-0.13
		c-0.04-0.04-0.07-0.09-0.1-0.13c-0.04-0.04-0.07-0.09-0.1-0.13c-0.04-0.04-0.07-0.09-0.1-0.13c-0.04-0.04-0.07-0.09-0.1-0.13
		c-0.04-0.04-0.07-0.09-0.1-0.13c-0.04-0.04-0.07-0.09-0.1-0.13c-0.04-0.04-0.07-0.09-0.1-0.13c-0.04-0.04-0.07-0.09-0.1-0.13
		c-0.04-0.04-0.07-0.09-0.1-0.13c-0.04-0.04-0.07-0.09-0.1-0.13c-0.04-0.04-0.07-0.09-0.1-0.13c-0.04-0.04-0.07-0.09-0.1-0.13
		c-0.04-0.04-0.07-0.09-0.1-0.13c-0.04-0.04-0.07-0.09-0.1-0.13c-0.04-0.04-0.07-0.09-0.1-0.13c-0.04-0.04-0.07-0.09-0.1-0.13
		c-0.04-0.04-0.07-0.09-0.1-0.13c-0.04-0.04-0.07-0.09-0.1-0.13c-0.04-0.04-0.07-0.09-0.1-0.13c-0.04-0.04-0.07-0.09-0.1-0.13
		c-0.04-0.04-0.07-0.09-0.1-0.13c-0.04-0.04-0.07-0.09-0.1-0.13c-0.04-0.04-0.07-0.09-0.1-0.13c-1.83-2.17-4.44-3.4-7.33-3.4H67.78
		c-6.74,0-13.04,5.2-15.67,12.93l-21.02,61.71c-1.45,4.24-1,8.7,1.18,11.92c0.23,0.34,0.47,0.65,0.73,0.95
		c0.04,0.04,0.07,0.09,0.1,0.13c0.04,0.04,0.07,0.09,0.1,0.13c0.04,0.04,0.07,0.09,0.1,0.13c0.04,0.04,0.07,0.09,0.1,0.13
		c0.04,0.04,0.07,0.09,0.1,0.13c0.04,0.04,0.07,0.09,0.1,0.13c0.04,0.04,0.07,0.09,0.1,0.13c0.04,0.04,0.07,0.09,0.1,0.13
		c0.04,0.04,0.07,0.09,0.1,0.13c0.04,0.04,0.07,0.09,0.1,0.13c0.04,0.04,0.07,0.09,0.1,0.13c0.04,0.04,0.07,0.09,0.1,0.13
		c0.04,0.04,0.07,0.09,0.1,0.13c0.04,0.04,0.07,0.09,0.1,0.13c0.04,0.04,0.07,0.09,0.1,0.13c0.04,0.04,0.07,0.09,0.1,0.13
		c0.04,0.04,0.07,0.09,0.1,0.13c0.04,0.04,0.07,0.09,0.1,0.13c0.04,0.04,0.07,0.09,0.1,0.13c0.04,0.04,0.07,0.09,0.1,0.13
		c0.04,0.04,0.07,0.09,0.1,0.13c0.04,0.04,0.07,0.09,0.1,0.13c0.04,0.04,0.07,0.09,0.1,0.13c0.04,0.04,0.07,0.09,0.1,0.13
		c0.04,0.04,0.07,0.09,0.1,0.13c0.04,0.04,0.07,0.09,0.1,0.13c0.04,0.04,0.07,0.09,0.1,0.13c0.04,0.04,0.07,0.09,0.1,0.13
		c0.04,0.04,0.07,0.09,0.1,0.13c0.04,0.04,0.07,0.09,0.1,0.13c1.82,2.17,4.43,3.4,7.32,3.4H65.2c0.03,1.95,0.56,3.81,1.6,5.34
		c0.19,0.29,0.4,0.56,0.63,0.81c0.04,0.04,0.07,0.09,0.1,0.13c0.04,0.04,0.07,0.09,0.1,0.13c0.04,0.04,0.07,0.09,0.1,0.13
		c0.04,0.04,0.07,0.09,0.1,0.13c0.04,0.04,0.07,0.09,0.1,0.13c0.04,0.04,0.07,0.09,0.1,0.13c0.04,0.04,0.07,0.09,0.1,0.13
		c0.04,0.04,0.07,0.09,0.1,0.13c0.04,0.04,0.07,0.09,0.1,0.13c0.04,0.04,0.07,0.09,0.1,0.13c0.04,0.04,0.07,0.09,0.1,0.13
		c0.04,0.04,0.07,0.09,0.1,0.13c0.04,0.04,0.07,0.09,0.1,0.13c0.04,0.04,0.07,0.09,0.1,0.13c0.04,0.04,0.07,0.09,0.1,0.13
		c0.04,0.04,0.07,0.09,0.1,0.13c0.04,0.04,0.07,0.09,0.1,0.13c0.04,0.04,0.07,0.09,0.1,0.13c0.04,0.04,0.07,0.09,0.1,0.13
		c0.04,0.04,0.07,0.09,0.1,0.13c0.04,0.04,0.07,0.09,0.1,0.13c0.04,0.04,0.07,0.09,0.1,0.13c0.04,0.04,0.07,0.09,0.1,0.13
		c0.04,0.04,0.07,0.09,0.1,0.13c0.04,0.04,0.07,0.09,0.1,0.13c0.04,0.04,0.07,0.09,0.1,0.13c0.04,0.04,0.07,0.09,0.1,0.13
		c0.04,0.04,0.07,0.09,0.1,0.13c0.04,0.04,0.07,0.09,0.1,0.13c0.04,0.04,0.07,0.09,0.1,0.13c1.56,1.86,3.82,2.91,6.33,2.91h15.07
		c5.2,0,9.99-3.81,11.92-9.47l1.27-3.72c0.77,0.2,1.58,0.3,2.41,0.3h43.62c2.86,0,5.64-0.94,8.1-2.61c1.76,1.68,4.07,2.61,6.59,2.61
		h43.62c2.64,0,5.21-0.8,7.52-2.24c1.7,1.44,3.85,2.24,6.17,2.24h43.62c6.73,0,13.02-5.19,15.64-12.91c0.97-2.86,1.06-5.82,0.3-8.41
		c2.39-2.21,4.33-5.19,5.52-8.68l8.57-25.18C298.9,354.63,298.28,348.02,295.21,343.49z M103.12,384.7l-9.78,28.73
		c-0.71,2.08-2.23,3.48-3.77,3.48H74.49c-1.23,0-1.91-1.7-1.35-3.35l1.28-3.77c0.36-1.05,1.12-1.75,1.9-1.75h4.3
		c0.86,0,1.66-1.04,1.72-2.28c0.05-1.11-0.59-1.91-1.37-1.91H41.06c-2.42,0-3.77-3.35-2.66-6.61l21.02-61.71
		c1.41-4.14,4.44-6.94,7.52-6.94h43.57c2.44,0,3.8,3.37,2.68,6.65l-0.88,2.6c-0.71,2.08-2.23,3.48-3.77,3.48H84.19
		c-3.06,0-6.08,2.78-7.49,6.89l-12.42,36.25c-1.12,3.28,0.23,6.66,2.67,6.66h13.68c0.01,0,0.02-0.01,0.03-0.02l3.26-9.56
		c0.71-2.08,2.23-3.48,3.77-3.48h12.75C102.88,378.05,104.24,381.43,103.12,384.7z M104.65,370.89c-1.06-0.39-2.19-0.6-3.37-0.6
		H88.53c-2.94,0-5.76,1.22-7.99,3.31l6.67-19.47c0.13-0.39,0.28-0.7,0.41-0.91h22.01l-4.15,12.17
		C104.86,367.22,104.58,369.09,104.65,370.89z M148.78,404.01h-43.62c-2.42,0-3.77-3.35-2.66-6.61l4.14-12.15
		c1.41-4.13,4.43-6.92,7.5-6.92h22.96c1.21,0,1.88,1.67,1.33,3.3l-0.61,1.8c-0.7,2.07-2.22,3.47-3.75,3.47h-6.83
		c-0.74,0-1.47,0.79-1.68,1.89c-0.23,1.26,0.4,2.3,1.3,2.3h8.93c1.53,0,3.04-1.39,3.75-3.45l2.49-7.27
		c1.11-3.26-0.24-6.61-2.66-6.61h-23.9c-2.42,0-3.77-3.35-2.66-6.61l6.35-18.62c1.41-4.13,4.43-6.92,7.5-6.92h38.71
		c4.84,0,7.54,6.7,5.32,13.21l-14.4,42.27C154.87,401.23,151.85,404.01,148.78,404.01z M207.09,404.01h-43.62
		c-2.42,0-3.77-3.35-2.66-6.61l4.16-12.22c1.41-4.13,4.43-6.92,7.5-6.92h38.54c0.87,0,1.68-1.06,1.72-2.31
		c0.04-1.09-0.58-1.88-1.35-1.88h-37.71c-2.42,0-3.77-3.35-2.66-6.61l10.83-31.8c0.14-0.41,0.3-0.81,0.47-1.19
		c1.54-3.46,4.26-5.72,7.02-5.72h11.5c2.42,0,3.77,3.35,2.66,6.61l-8.84,25.95h22.3c4.84,0,7.54,6.7,5.32,13.21l-7.69,22.58
		C213.18,401.23,210.16,404.01,207.09,404.01z M286.31,354.83l-8.57,25.18c-1.41,4.13-4.43,6.92-7.5,6.92h-24.08
		c-1.21,0-1.88-1.67-1.33-3.3l0.61-1.8c0.7-2.07,2.22-3.47,3.75-3.47h5.33c1.53,0,3.04-1.39,3.75-3.45l0.55-1.62
		c0.56-1.63-0.12-3.31-1.33-3.31h-8.58c-1.53,0-3.04,1.39-3.75,3.45l-4.55,13.31c-0.72,2.11,0.15,4.28,1.72,4.28l0,0h27.15
		c2.23,0,3.47,3.08,2.45,6.08c-1.41,4.13-4.43,6.92-7.5,6.92h-43.62c-2.42,0-3.77-3.35-2.66-6.61l16.64-48.87
		c1.41-4.13,4.43-6.92,7.5-6.92h38.71C285.82,341.62,288.52,348.32,286.31,354.83z"/>
	<path class="st0" d="M549.5,453.74c-0.23-0.34-0.47-0.68-0.72-1c-0.05-0.06-0.09-0.12-0.14-0.19c-0.05-0.06-0.09-0.13-0.14-0.19
		c-0.05-0.06-0.09-0.12-0.14-0.18c-0.05-0.06-0.09-0.13-0.14-0.19c-0.05-0.06-0.09-0.12-0.14-0.19c-0.05-0.06-0.09-0.12-0.14-0.19
		c-0.05-0.06-0.09-0.12-0.14-0.19c-0.05-0.06-0.09-0.12-0.14-0.19c-0.05-0.06-0.09-0.12-0.14-0.19c-0.05-0.06-0.09-0.13-0.14-0.19
		c-0.05-0.06-0.09-0.12-0.14-0.19c-0.05-0.06-0.09-0.12-0.14-0.19c-0.05-0.06-0.09-0.12-0.14-0.19c-0.05-0.06-0.09-0.12-0.14-0.19
		c-0.05-0.06-0.09-0.13-0.14-0.19c-0.05-0.06-0.09-0.12-0.14-0.19c-0.05-0.06-0.09-0.13-0.14-0.19c-0.05-0.06-0.09-0.12-0.14-0.19
		c-0.05-0.06-0.09-0.12-0.14-0.19c-0.05-0.06-0.09-0.12-0.14-0.19c-0.05-0.06-0.09-0.13-0.14-0.19c-0.05-0.06-0.09-0.12-0.14-0.19
		c-0.05-0.06-0.09-0.12-0.14-0.19c-0.05-0.06-0.09-0.12-0.14-0.19c-0.05-0.06-0.09-0.12-0.14-0.19c-0.05-0.06-0.09-0.13-0.14-0.19
		c-0.05-0.06-0.09-0.12-0.14-0.19c-0.05-0.06-0.09-0.12-0.14-0.19c-0.05-0.06-0.09-0.12-0.14-0.19c-0.05-0.06-0.09-0.12-0.14-0.19
		c-0.05-0.06-0.09-0.12-0.14-0.19c-0.05-0.06-0.09-0.13-0.14-0.19c-0.05-0.06-0.09-0.12-0.14-0.19c-0.05-0.06-0.09-0.12-0.14-0.19
		c-0.05-0.06-0.09-0.12-0.14-0.19c-0.05-0.06-0.09-0.12-0.14-0.19c-0.05-0.06-0.09-0.12-0.14-0.19c-0.05-0.06-0.09-0.13-0.14-0.19
		c-0.05-0.06-0.09-0.12-0.14-0.19c-0.05-0.06-0.09-0.12-0.14-0.19c-0.05-0.06-0.09-0.12-0.14-0.19c-0.05-0.06-0.09-0.12-0.14-0.19
		c-0.05-0.06-0.09-0.13-0.14-0.19c-0.05-0.06-0.09-0.12-0.14-0.19c-0.05-0.06-0.09-0.12-0.14-0.19c-0.05-0.06-0.09-0.12-0.14-0.19
		c-0.05-0.06-0.09-0.13-0.14-0.19c-0.05-0.06-0.09-0.12-0.14-0.18c-0.05-0.06-0.09-0.13-0.14-0.19c-0.05-0.06-0.09-0.12-0.14-0.19
		c-3.52-4.7-9.13-7.47-15.21-7.47h-58.74c-4.48,0-8.78,1.47-12.33,4.02c-2.41-2.81-5.95-4.38-9.93-4.38H428.1
		c-4.33,0-8.48,1.37-11.95,3.76c-2.53-2.39-5.95-3.76-9.6-3.76h-17.46c-5.79,0-11.26,2.45-15.22,6.51
		c-3.53-3.89-8.63-6.15-14.12-6.15H301c-5.77,0-11.22,2.43-15.18,6.47c-3.54-4.09-8.77-6.47-14.41-6.47h-28.99
		c-3.98,0-7.82,1.16-11.12,3.22c-3-2.07-6.64-3.22-10.48-3.22h-15.85c-0.01-0.02-0.03-0.03-0.04-0.05
		c-0.05-0.06-0.09-0.12-0.14-0.19c-0.05-0.06-0.09-0.12-0.14-0.19c-0.05-0.06-0.09-0.12-0.14-0.19c-0.05-0.06-0.09-0.13-0.14-0.19
		c-0.05-0.06-0.09-0.12-0.14-0.19c-0.05-0.06-0.09-0.12-0.14-0.19c-0.05-0.06-0.09-0.12-0.14-0.19c-0.05-0.06-0.09-0.12-0.14-0.19
		c-0.05-0.06-0.09-0.13-0.14-0.19c-0.05-0.06-0.09-0.12-0.14-0.19c-0.05-0.06-0.09-0.13-0.14-0.19c-0.05-0.06-0.09-0.12-0.14-0.19
		c-0.05-0.06-0.09-0.12-0.14-0.19c-0.05-0.06-0.09-0.12-0.14-0.19c-0.05-0.06-0.09-0.13-0.14-0.19c-0.05-0.06-0.09-0.12-0.14-0.19
		c-0.05-0.06-0.09-0.12-0.14-0.19c-0.05-0.06-0.09-0.12-0.14-0.19c-0.05-0.06-0.09-0.12-0.14-0.19c-0.05-0.06-0.09-0.13-0.14-0.19
		c-0.05-0.06-0.09-0.12-0.14-0.19c-0.05-0.06-0.09-0.12-0.14-0.19c-0.05-0.06-0.09-0.12-0.14-0.19c-0.05-0.06-0.09-0.12-0.14-0.19
		c-0.05-0.06-0.09-0.12-0.14-0.19c-0.05-0.06-0.09-0.13-0.14-0.19c-0.05-0.06-0.09-0.12-0.14-0.19c-0.05-0.06-0.09-0.12-0.14-0.19
		c-0.05-0.06-0.09-0.12-0.14-0.19c-0.05-0.06-0.09-0.12-0.14-0.19c-0.05-0.06-0.09-0.12-0.14-0.19c-0.05-0.06-0.09-0.13-0.14-0.19
		c-0.05-0.06-0.09-0.12-0.14-0.19c-0.05-0.06-0.09-0.12-0.14-0.19c-0.05-0.06-0.09-0.12-0.14-0.19c-0.05-0.06-0.09-0.12-0.14-0.19
		c-0.05-0.06-0.09-0.13-0.14-0.19c-0.05-0.06-0.09-0.12-0.14-0.19c-0.05-0.06-0.09-0.12-0.14-0.19c-0.05-0.06-0.09-0.12-0.14-0.19
		c-0.05-0.06-0.09-0.13-0.14-0.19c-0.05-0.06-0.09-0.12-0.14-0.18c-0.05-0.06-0.09-0.13-0.14-0.19c-0.05-0.06-0.09-0.12-0.14-0.19
		c-2.57-3.46-6.69-5.5-11.15-5.5h-66.2c-7.69,0-15.07,4.47-18.79,11.39c-0.44,0.83-0.81,1.61-1.1,2.37l-25.67,65.94
		c-1.73,4.45-1.26,9.37,1.28,13.17c0.17,0.26,0.35,0.5,0.54,0.75c0.05,0.06,0.09,0.12,0.14,0.19c0.05,0.06,0.09,0.12,0.14,0.19
		c0.05,0.06,0.09,0.13,0.14,0.19c0.05,0.06,0.09,0.12,0.14,0.19c0.05,0.06,0.09,0.12,0.14,0.19c0.05,0.06,0.09,0.12,0.14,0.19
		c0.05,0.06,0.09,0.12,0.14,0.19c0.05,0.06,0.09,0.12,0.14,0.19c0.05,0.06,0.09,0.13,0.14,0.19c0.05,0.06,0.09,0.12,0.14,0.19
		c0.05,0.06,0.09,0.12,0.14,0.19c0.05,0.06,0.09,0.12,0.14,0.19c0.05,0.06,0.09,0.12,0.14,0.19c0.05,0.06,0.09,0.13,0.14,0.19
		c0.05,0.06,0.09,0.12,0.14,0.19c0.05,0.06,0.09,0.12,0.14,0.19c0.05,0.06,0.09,0.12,0.14,0.19c0.05,0.06,0.09,0.13,0.14,0.19
		c0.05,0.06,0.09,0.12,0.14,0.18c0.05,0.06,0.09,0.13,0.14,0.19c0.05,0.06,0.09,0.12,0.14,0.19c0.05,0.06,0.09,0.12,0.14,0.19
		c0.05,0.06,0.09,0.12,0.14,0.19c0.05,0.06,0.09,0.12,0.14,0.19c0.05,0.06,0.09,0.12,0.14,0.19c0.05,0.06,0.09,0.13,0.14,0.19
		c0.05,0.06,0.09,0.12,0.14,0.19c0.05,0.06,0.09,0.12,0.14,0.19c0.05,0.06,0.09,0.12,0.14,0.19c0.05,0.06,0.09,0.12,0.14,0.19
		c0.05,0.06,0.09,0.13,0.14,0.19c0.05,0.06,0.09,0.12,0.14,0.19c0.05,0.06,0.09,0.13,0.14,0.19c0.05,0.06,0.09,0.12,0.14,0.19
		c0.05,0.06,0.09,0.12,0.14,0.19c0.05,0.06,0.09,0.12,0.14,0.19c0.05,0.06,0.09,0.13,0.14,0.19c0.05,0.06,0.09,0.12,0.14,0.19
		c0.05,0.06,0.09,0.12,0.14,0.19c0.05,0.06,0.09,0.12,0.14,0.19c0.05,0.06,0.09,0.12,0.14,0.19c0.05,0.06,0.09,0.13,0.14,0.19
		c0.05,0.06,0.09,0.12,0.14,0.19c0.05,0.06,0.09,0.12,0.14,0.19c0.05,0.06,0.09,0.12,0.14,0.19c0.05,0.06,0.09,0.12,0.14,0.19
		c0.05,0.06,0.09,0.12,0.14,0.19c0.05,0.06,0.09,0.13,0.14,0.19c0.05,0.06,0.09,0.12,0.14,0.19c0.05,0.06,0.09,0.12,0.14,0.19
		c2.57,3.46,6.69,5.5,11.15,5.5h21.36c6.36,0,12.21-4.05,14.56-10.07l0.11-0.27c0.04,0.05,0.08,0.1,0.12,0.15
		c0.05,0.06,0.09,0.13,0.14,0.19c0.05,0.06,0.09,0.12,0.14,0.19c0.05,0.06,0.09,0.12,0.14,0.19c0.05,0.06,0.09,0.12,0.14,0.19
		c0.05,0.06,0.09,0.12,0.14,0.19c0.05,0.06,0.09,0.13,0.14,0.19c0.05,0.06,0.09,0.12,0.14,0.19c0.05,0.06,0.09,0.13,0.14,0.19
		c0.05,0.06,0.09,0.12,0.14,0.19c0.05,0.06,0.09,0.12,0.14,0.19c0.05,0.06,0.09,0.12,0.14,0.19c0.05,0.06,0.09,0.13,0.14,0.19
		c0.05,0.06,0.09,0.12,0.14,0.19c0.05,0.06,0.09,0.12,0.14,0.19c0.05,0.06,0.09,0.12,0.14,0.19c0.05,0.06,0.09,0.12,0.14,0.19
		c0.05,0.06,0.09,0.13,0.14,0.19c0.05,0.06,0.09,0.12,0.14,0.19c0.05,0.06,0.09,0.12,0.14,0.19c0.05,0.06,0.09,0.12,0.14,0.19
		c0.05,0.06,0.09,0.12,0.14,0.19c0.05,0.06,0.09,0.12,0.14,0.19c0.05,0.06,0.09,0.13,0.14,0.19c0.05,0.06,0.09,0.12,0.14,0.19
		c0.05,0.06,0.09,0.12,0.14,0.19c2.57,3.48,6.7,5.54,11.18,5.54h19.33c3.6,0,7.04-1.3,9.77-3.52c2.5,2.24,5.82,3.52,9.35,3.52h17.65
		c8.67,0,16.66-5.51,19.87-13.71l0.32-0.81c0.02,0.03,0.04,0.06,0.07,0.09c0.05,0.06,0.09,0.13,0.14,0.19
		c0.05,0.06,0.09,0.12,0.14,0.19c0.05,0.06,0.09,0.12,0.14,0.19c0.05,0.06,0.09,0.12,0.14,0.19c0.05,0.06,0.09,0.12,0.14,0.19
		c0.05,0.06,0.09,0.12,0.14,0.19c0.05,0.06,0.09,0.13,0.14,0.19c0.05,0.06,0.09,0.12,0.14,0.19c0.05,0.06,0.09,0.12,0.14,0.19
		c0.05,0.06,0.09,0.12,0.14,0.19c0.05,0.06,0.09,0.12,0.14,0.19c0.05,0.06,0.09,0.13,0.14,0.19c0.05,0.06,0.09,0.12,0.14,0.19
		c0.05,0.06,0.09,0.12,0.14,0.19c0.05,0.06,0.09,0.12,0.14,0.19c0.05,0.06,0.09,0.13,0.14,0.19c0.05,0.06,0.09,0.12,0.14,0.18
		c0.05,0.06,0.09,0.13,0.14,0.19c0.05,0.06,0.09,0.12,0.14,0.19c0.05,0.06,0.09,0.12,0.14,0.19c0.05,0.06,0.09,0.12,0.14,0.19
		c0.05,0.06,0.09,0.12,0.14,0.19c0.05,0.06,0.09,0.12,0.14,0.19c0.05,0.06,0.09,0.13,0.14,0.19c0.05,0.06,0.09,0.12,0.14,0.19
		c0.05,0.06,0.09,0.12,0.14,0.19c0.05,0.06,0.09,0.12,0.14,0.19c0.05,0.06,0.09,0.12,0.14,0.19c0.05,0.06,0.09,0.13,0.14,0.19
		c0.05,0.06,0.09,0.12,0.14,0.19c0.05,0.06,0.09,0.13,0.14,0.19c0.05,0.06,0.09,0.12,0.14,0.19c0.05,0.06,0.09,0.12,0.14,0.19
		c0.05,0.06,0.09,0.12,0.14,0.19c0.05,0.06,0.09,0.13,0.14,0.19c0.05,0.06,0.09,0.12,0.14,0.19c0.05,0.06,0.09,0.12,0.14,0.19
		c0.05,0.06,0.09,0.12,0.14,0.19c0.05,0.06,0.09,0.12,0.14,0.19c0.05,0.06,0.09,0.13,0.14,0.19c0.05,0.06,0.09,0.12,0.14,0.19
		c0.05,0.06,0.09,0.12,0.14,0.19c0.05,0.06,0.09,0.12,0.14,0.19c0.05,0.06,0.09,0.12,0.14,0.19c0.05,0.06,0.09,0.12,0.14,0.19
		c0.05,0.06,0.09,0.13,0.14,0.19c0.05,0.06,0.09,0.12,0.14,0.19c0.05,0.06,0.09,0.12,0.14,0.19c2.57,3.46,6.69,5.5,11.15,5.5h17.65
		c4.5,0,8.81-1.48,12.37-4.05c2.56,2.57,6.11,4.05,9.91,4.05h65.3c0.02,0.03,0.05,0.06,0.07,0.09c0.05,0.06,0.09,0.12,0.14,0.19
		c0.05,0.06,0.09,0.12,0.14,0.19c0.05,0.06,0.09,0.13,0.14,0.19c0.05,0.06,0.09,0.12,0.14,0.19c0.05,0.06,0.09,0.12,0.14,0.19
		c0.05,0.06,0.09,0.12,0.14,0.19c0.05,0.06,0.09,0.12,0.14,0.19c0.05,0.06,0.09,0.13,0.14,0.19c0.05,0.06,0.09,0.12,0.14,0.19
		c0.05,0.06,0.09,0.12,0.14,0.19c0.05,0.06,0.09,0.12,0.14,0.19c0.05,0.06,0.09,0.13,0.14,0.19c0.05,0.06,0.09,0.12,0.14,0.18
		c0.05,0.06,0.09,0.13,0.14,0.19c0.05,0.06,0.09,0.12,0.14,0.19c0.05,0.06,0.09,0.12,0.14,0.19c0.05,0.06,0.09,0.12,0.14,0.19
		c0.05,0.06,0.09,0.12,0.14,0.19c0.05,0.06,0.09,0.12,0.14,0.19c0.05,0.06,0.09,0.13,0.14,0.19c0.05,0.06,0.09,0.12,0.14,0.19
		c0.05,0.06,0.09,0.12,0.14,0.19c0.05,0.06,0.09,0.12,0.14,0.19c0.05,0.06,0.09,0.12,0.14,0.19c0.05,0.06,0.09,0.13,0.14,0.19
		c0.05,0.06,0.09,0.12,0.14,0.19c0.05,0.06,0.09,0.13,0.14,0.19c0.05,0.06,0.09,0.12,0.14,0.19c0.05,0.06,0.09,0.12,0.14,0.19
		c0.05,0.06,0.09,0.12,0.14,0.19c0.05,0.06,0.09,0.13,0.14,0.19c0.05,0.06,0.09,0.12,0.14,0.19c0.05,0.06,0.09,0.12,0.14,0.19
		c0.05,0.06,0.09,0.12,0.14,0.19c0.05,0.06,0.09,0.12,0.14,0.19c0.05,0.06,0.09,0.13,0.14,0.19c0.05,0.06,0.09,0.12,0.14,0.19
		c0.05,0.06,0.09,0.12,0.14,0.19c0.05,0.06,0.09,0.12,0.14,0.19c0.05,0.06,0.09,0.12,0.14,0.19c0.05,0.06,0.09,0.12,0.14,0.19
		c0.05,0.06,0.09,0.13,0.14,0.19c0.05,0.06,0.09,0.12,0.14,0.19c0.05,0.06,0.09,0.12,0.14,0.19c2.57,3.46,6.69,5.5,11.15,5.5h56.5
		c4.3,0,8.48-1.34,12.1-3.88c2.67-0.89,4.99-2.92,6.14-5.72c0.42-1.03,0.82-2.01,1.15-2.95c0.02-0.05,1.24-3.18,1.24-3.18
		c2.13,1.26,4.61,1.95,7.2,1.95h66.2c8.69,0,16.69-5.53,19.9-13.76l17.57-45.14C553.61,465.66,552.96,458.93,549.5,453.74z
		 M164.75,508.19c-0.86,2.2-3.01,3.69-5.34,3.69h-19.33c-3.69,0-6.08-3.61-4.69-7.1l14.33-35.93c1.35-3.48-1.03-7.05-4.71-7.05
		h-32.76c-1.01,0-1.94,0.67-2.26,1.65c-0.48,1.43,0.52,2.83,2,2.83h30.28c1.84,0,3.03,1.79,2.35,3.53l-2.48,6.38
		c-0.86,2.2-3.01,3.69-5.34,3.69h-5.86c-2.33,0-4.48,1.49-5.34,3.69l-9.59,24.63c-0.86,2.2-3.01,3.69-5.34,3.69H89.32
		c-3.67,0-6.06-3.58-4.7-7.06l25.67-65.94c0.17-0.44,0.38-0.86,0.6-1.27c1.99-3.7,5.89-6.11,10.08-6.11h66.2
		c3.67,0,6.06,3.58,4.7,7.05L164.75,508.19z M251.88,511.88h-17.65c-3.67,0-6.06-3.58-4.7-7.06l8.09-20.77h5.92
		c1.32,0,2.44-1.13,2.38-2.47c-0.05-1.16-1.07-2.01-2.25-2.01h-4.85c-2.34,0-4.5,1.5-5.35,3.72l-4.25,11.09
		c-0.86,2.2-3.01,3.68-5.33,3.68h-2.42c-3.68,0-6.06-3.59-4.7-7.06l3.06-7.9c0.67-1.74-0.52-3.52-2.35-3.52h-6.86
		c-1.32,0-2.44,1.13-2.38,2.47c0.05,1.16,1.07,2.01,2.25,2.01h4.42l-8.03,20.47c-1.72,4.39-6.02,7.36-10.67,7.36h-17.65
		c-3.67,0-6.06-3.58-4.7-7.06l21.76-55.89c0.86-2.2,3.01-3.69,5.34-3.69h19.34c6.81,0,11.22,6.65,8.69,13.09l2.25-5.73
		c1.72-4.39,6.02-7.36,10.66-7.36h28.99l0,0c7.36,0,12.13,7.18,9.4,14.14l-17.72,45.14C260.82,508.92,256.53,511.88,251.88,511.88z
		 M351.03,504.5c-1.72,4.41-6.02,7.39-10.68,7.39h-66.2c-3.67,0-6.06-3.58-4.7-7.06l5.05-12.97c1.72-4.41,6.02-7.39,10.68-7.39
		h34.84c1.83,0,3.03,1.79,2.36,3.52l-0.74,1.92c-0.85,2.21-3.01,3.71-5.34,3.71h-10.36c-1.13,0-2.16,0.84-2.35,2.01
		c-0.22,1.34,0.85,2.45,2.2,2.45h13.54c2.32,0,4.47-1.48,5.33-3.68l3.04-7.76c1.36-3.48-1.03-7.06-4.7-7.06h-36.27
		c-3.67,0-6.06-3.58-4.7-7.06l7.76-19.89c1.72-4.41,6.02-7.39,10.68-7.39h58.74c7.34,0,12.12,7.16,9.41,14.11L351.03,504.5z
		 M422.34,522.28l1.14-2.94c-0.03,0.05-0.06,0.11-0.09,0.17c-0.75,1.4-1.78,2.62-3,3.59c-0.1,0.08-0.21,0.16-0.32,0.24
		c-0.09,0.07-0.19,0.14-0.28,0.21c-1.89,1.34-4.17,2.12-6.55,2.12h-56.5c-3.67,0-6.06-3.58-4.71-7.05l0.97-2.49h35.16
		c4.64,0,8.94-2.96,10.67-7.36l4.7-11.48h-28.37c-7.34,0-12.12-7.16-9.41-14.11l12.11-30.91c1.72-4.41,6.02-7.39,10.68-7.39H406
		c3.67,0,6.06,3.58,4.71,7.05l-7.82,19.89c-1.72,4.41-6.02,7.39-10.68,7.39h-11.45c-1.17,0-2.3,0.84-2.48,2.01
		c-0.21,1.34,0.77,2.47,2.09,2.47h43.98c1.31,0,2.42-1.11,2.38-2.44c-0.03-1.19-1.08-2.04-2.28-2.04h-10.68
		c-3.67,0-6.06-3.58-4.71-7.06l7.82-19.89c1.72-4.41,6.02-7.39,10.68-7.39h17.56c3.67,0,6.06,3.58,3.05,11.1l-24.68,63.36
		C423.64,519.07,423.6,519.22,422.34,522.28z M535.53,459.36l-17.57,45.14c-1.72,4.41-6.02,7.39-10.68,7.39h-66.2
		c-3.67,0-6.06-3.58-4.71-7.06l5.05-12.97c1.72-4.41,6.02-7.39,10.68-7.39h34.84c1.83,0,3.03,1.79,2.36,3.52l-0.74,1.92
		c-0.85,2.21-3.01,3.71-5.34,3.71h-10.36c-1.13,0-2.16,0.84-2.35,2.01c-0.22,1.34,0.85,2.45,2.2,2.45h13.54
		c2.32,0,4.47-1.48,5.33-3.68l3.04-7.76c1.36-3.48-1.03-7.06-4.7-7.06h-36.27c-3.67,0-6.06-3.58-4.71-7.06l7.76-19.89
		c1.72-4.41,6.02-7.39,10.68-7.39h58.74C533.47,445.25,538.24,452.4,535.53,459.36z"/>
</g>
<g id="Layer_2">
	<g>
		<g>
			<path class="st0" d="M390.46,353.72c0.16-0.87,0.13-1.7-0.06-2.48c-0.01-0.07-0.04-0.14-0.06-0.21c-0.01-0.07-0.04-0.14-0.06-0.22
				c-0.01-0.07-0.04-0.14-0.06-0.21c-0.01-0.07-0.04-0.14-0.06-0.22c-0.01-0.07-0.04-0.14-0.06-0.21c-0.01-0.07-0.04-0.14-0.06-0.22
				c-0.01-0.07-0.04-0.14-0.06-0.21c-0.01-0.07-0.04-0.14-0.06-0.22c-0.01-0.07-0.04-0.14-0.06-0.21c-0.01-0.07-0.04-0.14-0.06-0.22
				c-0.01-0.07-0.04-0.14-0.06-0.21c-0.01-0.07-0.04-0.14-0.06-0.22c-0.01-0.07-0.04-0.14-0.06-0.22c-0.01-0.07-0.04-0.14-0.06-0.21
				c-0.01-0.07-0.04-0.14-0.06-0.21c-0.01-0.07-0.04-0.14-0.06-0.22c-0.43-2.2-2.15-4-4.85-4.92l-13.34-4.56l-0.08-9.18
				c0-0.5-0.08-0.98-0.2-1.44c-0.02-0.07-0.04-0.14-0.06-0.21c-0.02-0.07-0.04-0.14-0.06-0.22c-0.02-0.07-0.04-0.14-0.06-0.21
				c-0.02-0.07-0.04-0.14-0.06-0.22c-0.02-0.07-0.04-0.14-0.06-0.21c-0.02-0.07-0.04-0.14-0.06-0.22c-0.02-0.07-0.04-0.14-0.06-0.21
				c-0.02-0.07-0.04-0.14-0.06-0.22c-0.02-0.07-0.04-0.14-0.06-0.21c-0.02-0.07-0.04-0.14-0.06-0.22c-0.02-0.07-0.04-0.14-0.06-0.21
				c-0.02-0.07-0.04-0.14-0.06-0.22c-0.02-0.07-0.04-0.14-0.06-0.22c-0.02-0.07-0.04-0.14-0.06-0.21c-0.02-0.07-0.04-0.14-0.06-0.21
				c-0.02-0.07-0.04-0.14-0.06-0.22c-0.66-2.89-3.57-4.98-7.63-5.35c-3.57-0.32-7.49,0.76-10.47,2.89l-13.31,9.49
				c-0.21,0.15-0.49,0.23-0.75,0.21l-16.05-1.28c-4.13-0.33-8.57,1.15-11.57,3.87c-2.66,2.4-3.7,5.32-2.9,7.86
				c0.02,0.07,0.04,0.14,0.06,0.21c0.02,0.07,0.04,0.14,0.06,0.22c0.02,0.07,0.04,0.14,0.06,0.22c0.02,0.07,0.04,0.14,0.06,0.21
				c0.02,0.07,0.04,0.14,0.06,0.21c0.02,0.07,0.04,0.14,0.06,0.22c0.02,0.07,0.04,0.14,0.06,0.21c0.02,0.07,0.04,0.14,0.06,0.22
				c0.02,0.07,0.04,0.14,0.06,0.21c0.02,0.07,0.04,0.14,0.06,0.22c0.02,0.07,0.04,0.14,0.06,0.21c0.02,0.07,0.04,0.14,0.06,0.22
				c0.02,0.07,0.04,0.14,0.06,0.21c0.02,0.07,0.04,0.14,0.06,0.22c0.02,0.07,0.04,0.14,0.06,0.21c0.02,0.07,0.04,0.14,0.06,0.22
				c0.11,0.41,0.26,0.81,0.47,1.2l4.27,7.95l-9.46,10.99c-1.88,2.18-2.54,4.59-1.88,6.72c0.02,0.07,0.04,0.14,0.06,0.21
				c0.02,0.07,0.04,0.14,0.06,0.22c0.02,0.07,0.04,0.14,0.06,0.22c0.02,0.07,0.04,0.14,0.06,0.21c0.02,0.07,0.04,0.14,0.06,0.21
				c0.02,0.07,0.04,0.14,0.06,0.22c0.02,0.07,0.04,0.14,0.06,0.21c0.02,0.07,0.04,0.14,0.06,0.22c0.02,0.07,0.04,0.14,0.06,0.21
				c0.02,0.07,0.04,0.14,0.06,0.22c0.02,0.07,0.04,0.14,0.06,0.21c0.02,0.07,0.04,0.14,0.06,0.22c0.02,0.07,0.04,0.14,0.06,0.21
				c0.02,0.07,0.04,0.14,0.06,0.22c0.02,0.07,0.04,0.14,0.06,0.21c0.02,0.07,0.04,0.14,0.06,0.22c0.09,0.35,0.21,0.69,0.37,1.02
				c0.74,1.54,2.19,2.74,4.06,3.46c-0.39,0.26-0.71,0.44-0.94,0.56c-1.51-0.06-5.64-0.33-7.97-0.48c-2.15-0.14-3.39-0.22-4.19-0.25
				c-3.97-0.31-8.72,1.36-11.82,4.17c-2.4,2.17-3.37,4.63-2.69,6.74c0.03,0.19,0.08,0.4,0.14,0.63c0.02,0.07,0.04,0.14,0.06,0.21
				c0.02,0.07,0.04,0.14,0.06,0.22c0.02,0.07,0.04,0.14,0.06,0.22c0.02,0.07,0.04,0.14,0.06,0.21c0.02,0.07,0.04,0.14,0.06,0.21
				c0.02,0.07,0.04,0.14,0.06,0.22c0.02,0.07,0.04,0.14,0.06,0.21c0.02,0.07,0.04,0.14,0.06,0.22c0.02,0.07,0.04,0.14,0.06,0.21
				c0.02,0.07,0.04,0.14,0.06,0.22c0.02,0.07,0.04,0.14,0.06,0.21c0.02,0.07,0.04,0.14,0.06,0.22c0.02,0.07,0.04,0.14,0.06,0.21
				c0.02,0.07,0.04,0.14,0.06,0.22c0.02,0.07,0.04,0.14,0.06,0.21c0.02,0.07,0.04,0.14,0.06,0.22c0.24,1.03,0.87,2.49,2.03,4.98
				c0.59,1.25,1.04,2.2,1.41,2.93c-1.08,1.34-2.99,3.64-4.16,5.04c-1.27,1.53-2,2.42-2.45,2.98c-0.17,0.2-0.32,0.4-0.47,0.61
				c0-0.02-0.01-0.03-0.02-0.05c-0.02-0.07-0.04-0.14-0.06-0.21c-0.02-0.07-0.04-0.14-0.06-0.22c-0.02-0.07-0.04-0.14-0.06-0.21
				c-0.02-0.07-0.04-0.14-0.06-0.22c-0.02-0.07-0.04-0.14-0.06-0.21c-0.02-0.07-0.04-0.14-0.06-0.22c-0.02-0.07-0.04-0.14-0.06-0.22
				c-0.02-0.07-0.04-0.14-0.06-0.21c-0.02-0.07-0.04-0.14-0.06-0.21c-0.02-0.07-0.04-0.14-0.06-0.22c-0.66-2.88-4.3-5.53-8.37-5.89
				c-1.7-0.15-3.43,0.1-4.97,0.71c-1.83,0.48-3.92,1.63-7.01,3.52c-3.38,2.06-4.91,3.18-5.68,3.88c-0.22,0.17-0.47,0.37-0.75,0.6
				c-0.29,0.23-0.81,0.66-1.28,1.01c-1.45-0.03-3.88-0.12-5.21-0.17c-1.9-0.08-2.9-0.12-3.57-0.11c-4.15-0.13-9.22,2.14-11.85,4.52
				c-1.74,1.58-2.58,3.32-2.4,4.88c-0.06,0.92,0.1,2.01,0.4,3.14c0.02,0.07,0.04,0.14,0.06,0.21c0.02,0.07,0.04,0.14,0.06,0.22
				c0.02,0.07,0.04,0.14,0.06,0.22c0.02,0.07,0.04,0.14,0.06,0.21c0.02,0.07,0.04,0.14,0.06,0.21c0.02,0.07,0.04,0.14,0.06,0.22
				c0.02,0.07,0.04,0.14,0.06,0.21c0.02,0.07,0.04,0.14,0.06,0.22c0.02,0.07,0.04,0.14,0.06,0.21c0.02,0.07,0.04,0.14,0.06,0.22
				c0.02,0.07,0.04,0.14,0.06,0.21c0.02,0.07,0.04,0.14,0.06,0.22c0.02,0.07,0.04,0.14,0.06,0.21c0.02,0.07,0.04,0.14,0.06,0.22
				c0.02,0.07,0.04,0.14,0.06,0.21c0.02,0.07,0.04,0.14,0.06,0.22c0.49,1.98,1.43,4.1,2.3,5.57c-0.73,0.96-1.62,2.09-2.17,2.79
				c-1.06,1.35-1.62,2.07-1.95,2.55c-1.71,2.24-1.85,4.95-1.18,6.98c0.02,0.07,0.03,0.15,0.06,0.21c0.02,0.07,0.04,0.15,0.06,0.22
				c0.02,0.07,0.04,0.15,0.06,0.22c0.02,0.07,0.03,0.15,0.06,0.21c0.02,0.07,0.03,0.15,0.06,0.21c0.02,0.07,0.04,0.15,0.06,0.22
				c0.02,0.07,0.03,0.15,0.06,0.21c0.02,0.07,0.04,0.15,0.06,0.22c0.02,0.07,0.03,0.15,0.06,0.21c0.02,0.07,0.04,0.15,0.06,0.22
				c0.02,0.07,0.03,0.15,0.06,0.21c0.02,0.07,0.04,0.15,0.06,0.22c0.02,0.07,0.03,0.15,0.06,0.21c0.02,0.07,0.04,0.15,0.06,0.22
				c0.02,0.07,0.03,0.15,0.06,0.21c0.02,0.07,0.04,0.15,0.06,0.22c0.11,0.36,0.23,0.71,0.38,1.02c0.97,2.02,2.88,3.26,5.36,3.48
				c0,0,0.13,0.01,0.19,0.02c0.3,0.07,0.63,0.12,0.98,0.15c1.86,0.17,9.1-0.37,13.05-1.28l0,0c0.36-0.06,0.94-0.19,1.61-0.34
				c0.39-0.09,1.09-0.25,1.69-0.37c0.98,0.67,2.56,1.84,3.44,2.48c1.24,0.91,1.9,1.4,2.36,1.69c1.52,1.09,3.64,1.49,5.2,1.63
				c3.34,0.3,6.81-0.31,9.28-1.63c1.15-0.61,2.1-1.38,2.78-2.23c2.13-2.14,4.72-7.35,5.5-10.11l0.03,0c0.1-0.27,0.23-0.69,0.37-1.19
				c0.08-0.29,0.22-0.81,0.37-1.26c1.37-0.63,3.72-1.64,5-2.2c1.82-0.79,2.79-1.21,3.41-1.51c3.97-1.76,6.84-5.57,7.37-8.38
				c0.14-0.76,0.11-1.47-0.07-2.12c-0.02-0.07-0.04-0.14-0.06-0.21c-0.02-0.07-0.04-0.14-0.06-0.22c-0.02-0.07-0.04-0.14-0.06-0.21
				c-0.02-0.07-0.04-0.14-0.06-0.22c-0.02-0.07-0.04-0.14-0.06-0.21c-0.02-0.07-0.04-0.14-0.06-0.22c-0.02-0.07-0.04-0.14-0.06-0.21
				c-0.02-0.07-0.04-0.14-0.06-0.22c-0.02-0.07-0.04-0.14-0.06-0.21c-0.02-0.07-0.04-0.14-0.06-0.22c-0.02-0.07-0.04-0.14-0.06-0.21
				c-0.01-0.06-0.03-0.11-0.04-0.16c0.53-0.07,1.08-0.15,1.7-0.24c4.18-0.61,6.17-0.94,7.27-1.19c0.78-0.13,1.34-0.18,1.69-0.19
				c0.99,0.73,3.61,2.81,5.09,3.99c1.36,1.08,2.15,1.71,2.68,2.1c1.3,1.08,3.18,1.76,5.42,1.96c3.1,0.28,6.55-0.41,9.23-1.84
				c1.87-0.99,3.3-2.31,4.13-3.77c0.66-0.91,1.45-2.51,2.98-6.07c1.38-3.22,1.97-4.72,2.2-5.56c0.23-0.57,0.45-0.98,0.6-1.23
				c1.46-0.63,5.52-2.29,7.83-3.22c2.11-0.86,3.33-1.35,4.09-1.69c3.95-1.55,7.01-4.81,7.63-8.12c0.18-0.98,0.13-1.9-0.13-2.73
				c-0.02-0.07-0.04-0.14-0.06-0.21c-0.02-0.07-0.04-0.14-0.06-0.22c-0.02-0.07-0.04-0.14-0.06-0.21c-0.02-0.07-0.04-0.14-0.06-0.22
				c-0.02-0.07-0.04-0.14-0.06-0.21c-0.02-0.07-0.04-0.15-0.06-0.22c-0.02-0.07-0.04-0.14-0.06-0.21c-0.02-0.07-0.04-0.14-0.06-0.22
				c-0.02-0.07-0.04-0.14-0.06-0.21c-0.02-0.07-0.04-0.14-0.06-0.22c-0.02-0.07-0.04-0.14-0.06-0.21c-0.02-0.07-0.04-0.14-0.06-0.22
				c-0.02-0.07-0.04-0.14-0.06-0.22c-0.02-0.07-0.04-0.14-0.06-0.21c-0.02-0.07-0.04-0.14-0.06-0.21c-0.02-0.07-0.04-0.14-0.06-0.22
				c-0.38-1.41-1.36-2.57-2.87-3.31c-1.02-0.69-2.86-1.43-6.29-2.75c-3.66-1.41-5.33-1.98-6.23-2.23c-0.21-0.07-0.38-0.14-0.55-0.21
				c-0.04-0.98-0.08-1.97-0.1-2.72c0-0.1-0.01-0.19-0.01-0.28l4.14,3.46c1.41,1.17,3.32,1.9,5.53,2.09
				c2.91,0.26,6.15-0.42,8.88-1.88c2.72-1.45,4.7-3.51,5.56-5.8l4.69-12.44c0.08-0.2,0.27-0.38,0.53-0.48l15.99-6.25
				C386.94,359.91,389.87,356.92,390.46,353.72z"/>
			<path class="st0" d="M217.2,443.59c-0.02-0.07-0.04-0.14-0.06-0.21c-0.02-0.07-0.04-0.14-0.06-0.22c-0.02-0.07-0.04-0.14-0.06-0.21
				c-0.02-0.07-0.04-0.14-0.06-0.22c-0.02-0.07-0.04-0.14-0.06-0.21c-0.02-0.07-0.04-0.14-0.06-0.22c-0.02-0.07-0.04-0.14-0.06-0.21
				c-0.02-0.07-0.04-0.14-0.06-0.22c-0.02-0.07-0.04-0.14-0.06-0.21c-0.02-0.07-0.04-0.14-0.06-0.22c-0.02-0.07-0.04-0.14-0.06-0.21
				c-0.02-0.07-0.04-0.14-0.06-0.22c-0.02-0.07-0.04-0.14-0.06-0.22c-0.02-0.07-0.04-0.14-0.06-0.21c-0.02-0.07-0.04-0.14-0.06-0.21
				c-0.02-0.07-0.04-0.14-0.06-0.22c-0.04-0.18-0.1-0.36-0.17-0.53c-0.01-0.04-0.02-0.08-0.03-0.12c0-0.02-0.02-0.04-0.02-0.05
				c-0.01-0.05-0.02-0.11-0.04-0.16c-0.72-2.62-6.47-5.45-9.38-5.96c-0.49-0.11-1.07-0.2-1.9-0.32c-0.33-0.05-0.83-0.13-1.32-0.21
				c-0.03-0.11-0.05-0.22-0.08-0.31c0-0.01-0.01-0.02-0.01-0.04c-0.02-0.06-0.03-0.12-0.05-0.18c0-0.01-0.01-0.02-0.01-0.04
				c-0.02-0.06-0.03-0.12-0.05-0.18c0-0.01-0.01-0.02-0.01-0.04c-0.02-0.06-0.03-0.12-0.05-0.18c0-0.01-0.01-0.02-0.01-0.04
				c-0.02-0.06-0.03-0.12-0.05-0.18c0-0.01-0.01-0.02-0.01-0.04c-0.02-0.06-0.03-0.12-0.05-0.18c0-0.01-0.01-0.02-0.01-0.04
				c-0.02-0.06-0.03-0.12-0.05-0.18c0-0.01-0.01-0.03-0.01-0.04c-0.02-0.06-0.03-0.12-0.05-0.18c0-0.01-0.01-0.02-0.01-0.04
				c-0.02-0.06-0.03-0.12-0.05-0.18c0-0.01-0.01-0.02-0.01-0.04c-0.02-0.06-0.03-0.12-0.05-0.18c0-0.01-0.01-0.02-0.01-0.04
				c-0.02-0.06-0.03-0.12-0.05-0.18c0-0.01-0.01-0.02-0.01-0.04c-0.02-0.06-0.03-0.12-0.05-0.18c0-0.01-0.01-0.02-0.01-0.04
				c-0.02-0.06-0.03-0.12-0.05-0.18c0-0.01-0.01-0.02-0.01-0.04c-0.02-0.06-0.03-0.12-0.05-0.18c0-0.01-0.01-0.03-0.01-0.04
				c-0.02-0.06-0.03-0.12-0.05-0.18c0-0.01-0.01-0.02-0.01-0.04c-0.02-0.06-0.03-0.12-0.05-0.18c0-0.01-0.01-0.02-0.01-0.04
				c-0.02-0.06-0.03-0.12-0.05-0.18c0-0.01-0.01-0.02-0.01-0.04c-0.02-0.06-0.03-0.12-0.05-0.18c-0.6-2.66-4.44-6.09-8.34-6.43
				c-0.7-0.06-1.41-0.04-2.1,0.07c-3.89,0.19-9.69,3.46-12.34,5.67c-0.56,0.42-1.05,0.9-1.89,1.74c-0.29,0.29-0.76,0.76-1.19,1.17
				c-0.93,0.02-2.07,0.02-2.75,0.02c-1.27,0-2.04,0.01-2.64,0.05c-3.87,0.08-9.76,2.51-12.11,4.64c-0.74,0.67-1.27,1.38-1.58,2.09
				c-0.11,0.16-0.21,0.33-0.3,0.5c-0.73,1.39-0.65,3.57-0.13,5.57c0.02,0.07,0.04,0.14,0.06,0.21c0.02,0.07,0.04,0.14,0.06,0.22
				c0.02,0.07,0.04,0.14,0.06,0.22c0.02,0.07,0.04,0.14,0.06,0.21c0.02,0.07,0.04,0.14,0.06,0.21c0.02,0.07,0.04,0.14,0.06,0.22
				c0.02,0.07,0.04,0.14,0.06,0.21c0.02,0.07,0.04,0.14,0.06,0.22c0.02,0.07,0.04,0.14,0.06,0.21c0.02,0.07,0.04,0.14,0.06,0.22
				c0.02,0.07,0.04,0.14,0.06,0.21c0.02,0.07,0.04,0.14,0.06,0.22c0.02,0.07,0.04,0.14,0.06,0.21c0.02,0.07,0.04,0.14,0.06,0.22
				c0.02,0.07,0.04,0.14,0.06,0.21c0.02,0.07,0.04,0.14,0.06,0.22c0.37,1.52,1.01,2.96,1.76,3.9c0.04,0.06,0.09,0.13,0.14,0.19
				c-0.13,0.18-0.25,0.36-0.35,0.5c-0.63,0.9-1.01,1.45-1.27,1.89c-1.54,2.28-1.58,5.51-0.97,7.51c0.02,0.07,0.04,0.15,0.06,0.21
				c0.02,0.07,0.04,0.15,0.06,0.22c0.02,0.07,0.04,0.15,0.06,0.22c0.02,0.07,0.04,0.15,0.06,0.21c0.02,0.07,0.04,0.15,0.06,0.21
				c0.02,0.07,0.04,0.15,0.06,0.22c0.02,0.07,0.04,0.15,0.06,0.21c0.02,0.07,0.04,0.15,0.06,0.22c0.02,0.07,0.04,0.15,0.06,0.21
				c0.02,0.07,0.04,0.15,0.06,0.22c0.02,0.07,0.04,0.15,0.06,0.21c0.02,0.07,0.04,0.15,0.06,0.22c0.02,0.07,0.04,0.15,0.06,0.21
				c0.02,0.07,0.04,0.15,0.06,0.22c0.02,0.07,0.04,0.15,0.06,0.21c0.02,0.07,0.04,0.15,0.06,0.22c0.1,0.37,0.22,0.71,0.36,0.99
				c0.61,1.27,1.6,1.96,2.55,2.33c0.76,0.46,1.87,0.83,3.48,0.97c1.65,0.15,6.93,0.16,10.3-0.87c0.55-0.14,1.19-0.35,2.09-0.64
				c0.44-0.14,1.14-0.36,1.77-0.56c0.65,0.39,1.44,0.9,1.91,1.2c0.85,0.54,1.38,0.88,1.82,1.11c1.53,0.96,3.89,1.35,5.69,1.51
				c3.5,0.31,6.36-0.1,8.49-1.24c0.25-0.13,0.49-0.28,0.72-0.43c0.45-0.22,0.88-0.48,1.29-0.78c2.27-1.66,5.32-6.28,5.79-9.01
				c0.11-0.44,0.17-0.94,0.25-1.68c0.04-0.33,0.1-0.86,0.16-1.33c0.85-0.43,1.91-0.94,2.54-1.24c1.18-0.57,1.89-0.91,2.42-1.21
				c3.54-1.78,7.05-6.06,7.52-8.57C217.4,444.71,217.37,444.12,217.2,443.59z"/>
			<path class="st0" d="M133.16,456c2.72-1.79,6.49-5.4,7.23-7.6c0.45-0.91,0.56-1.87,0.31-2.8c-0.01-0.04-0.03-0.08-0.04-0.12
				c-0.01-0.03-0.01-0.06-0.02-0.1c-0.01-0.04-0.03-0.08-0.04-0.12c-0.01-0.03-0.01-0.06-0.02-0.1c-0.01-0.04-0.03-0.08-0.04-0.12
				c-0.01-0.03-0.01-0.06-0.02-0.1c-0.01-0.04-0.03-0.08-0.04-0.12c-0.01-0.03-0.01-0.06-0.02-0.1c-0.01-0.04-0.03-0.08-0.04-0.12
				c-0.01-0.03-0.01-0.06-0.02-0.1c-0.01-0.04-0.03-0.08-0.04-0.12c-0.01-0.03-0.01-0.06-0.02-0.1c-0.01-0.04-0.03-0.08-0.04-0.12
				c-0.01-0.03-0.01-0.06-0.02-0.1c-0.01-0.04-0.03-0.08-0.04-0.12c-0.01-0.03-0.01-0.06-0.02-0.1c-0.01-0.04-0.03-0.08-0.04-0.12
				c-0.01-0.03-0.01-0.06-0.02-0.1c-0.01-0.04-0.03-0.08-0.04-0.12c-0.01-0.03-0.01-0.06-0.02-0.1c-0.01-0.04-0.03-0.08-0.04-0.12
				c-0.01-0.03-0.01-0.06-0.02-0.1c-0.01-0.04-0.03-0.08-0.04-0.12c-0.01-0.03-0.01-0.06-0.02-0.1c-0.01-0.04-0.03-0.08-0.04-0.12
				c-0.01-0.03-0.01-0.06-0.02-0.1c-0.01-0.04-0.03-0.08-0.04-0.12c-0.01-0.03-0.01-0.06-0.02-0.1c-0.01-0.04-0.03-0.08-0.04-0.12
				c-0.01-0.03-0.01-0.06-0.02-0.1c-0.01-0.04-0.03-0.08-0.04-0.12c-0.01-0.03-0.01-0.06-0.02-0.1c-0.01-0.04-0.03-0.08-0.04-0.12
				c-0.01-0.03-0.01-0.06-0.02-0.1c-0.67-2.45-4.16-4.86-7.46-5.16c-0.02,0-0.04,0-0.07-0.01c-0.2-0.03-0.39-0.04-0.58-0.06
				c-0.43-0.04-1.08-0.09-1.83-0.14c-0.77-0.06-1.65-0.12-2.43-0.18c-0.07-0.19-0.13-0.38-0.18-0.51c-0.11-0.31-0.2-0.56-0.3-0.8
				c-0.19-0.66-0.73-1.69-2.27-3.43c-1.6-1.81-2.86-2.75-4.3-3.14c-0.6-0.26-1.3-0.43-2.08-0.5c-3.76-0.34-9.56,2.03-11.98,4.8
				c-0.35,0.37-0.78,0.88-1.5,1.73c-0.36,0.43-0.96,1.13-1.47,1.73c-0.29,0.03-0.56,0.05-0.76,0.07c-0.81,0.08-1.4,0.13-1.98,0.25
				c-3.31,0.46-8.78,2.13-11.1,3.83c-1.16,0.71-2.09,1.67-2.68,2.79c-0.78,1.49-0.98,3.51-0.47,5.26c0.02,0.07,0.04,0.14,0.06,0.21
				c0.02,0.07,0.04,0.14,0.06,0.22c0.02,0.07,0.04,0.14,0.06,0.22c0.02,0.07,0.04,0.14,0.06,0.21c0.02,0.07,0.04,0.14,0.06,0.21
				c0.02,0.07,0.04,0.14,0.06,0.22c0.02,0.07,0.04,0.14,0.06,0.21c0.02,0.07,0.04,0.14,0.06,0.22c0.02,0.07,0.04,0.14,0.06,0.21
				c0.02,0.07,0.04,0.14,0.06,0.22c0.02,0.07,0.04,0.14,0.06,0.21c0.02,0.07,0.04,0.14,0.06,0.22c0.02,0.07,0.04,0.14,0.06,0.21
				c0.02,0.07,0.04,0.14,0.06,0.22c0.02,0.07,0.04,0.14,0.06,0.21c0.02,0.07,0.04,0.14,0.06,0.22c0.28,1.09,0.82,2.08,1.66,2.8
				c0.24,0.23,0.57,0.51,1.06,0.91c-1.03,2.35-1.43,6.07-0.89,7.74c0.02,0.07,0.04,0.15,0.06,0.21c0.02,0.07,0.04,0.15,0.06,0.22
				c0.02,0.07,0.04,0.15,0.06,0.22c0.02,0.07,0.04,0.15,0.06,0.21c0.02,0.07,0.04,0.15,0.06,0.21c0.02,0.07,0.04,0.15,0.06,0.22
				c0.02,0.07,0.04,0.15,0.06,0.21c0.02,0.07,0.04,0.15,0.06,0.22c0.02,0.07,0.04,0.15,0.06,0.21c0.02,0.07,0.04,0.15,0.06,0.22
				c0.02,0.07,0.04,0.15,0.06,0.21c0.02,0.07,0.04,0.15,0.06,0.22c0.02,0.07,0.04,0.15,0.06,0.21c0.02,0.07,0.04,0.15,0.06,0.22
				c0.02,0.07,0.04,0.15,0.06,0.21c0.02,0.07,0.04,0.15,0.06,0.22c0.05,0.19,0.11,0.37,0.18,0.52c0.06,0.13,0.13,0.25,0.21,0.37
				c0.56,1.47,2.32,2.76,6.03,3.09c1.27,0.11,4.37,0.24,7.15-0.84c0.54-0.19,1.25-0.47,2.41-0.93c0.6-0.24,1.57-0.63,2.41-0.95
				c0.22,0.1,0.43,0.2,0.58,0.27c0.49,0.23,0.88,0.41,1.27,0.55c2.58,1.13,7.36,1.6,7.41,1.61c0.72,0.06,2.11,0.19,3.67-0.15
				c1.33-0.14,3.08-0.64,4.93-1.98c2.39-1.74,4.68-4.82,4.7-7.22c0.03-0.41,0.02-0.95,0-1.86c-0.01-0.46-0.03-1.21-0.03-1.84
				c0.24-0.15,0.48-0.29,0.65-0.39C132.2,456.64,132.71,456.34,133.16,456z"/>
			<path class="st0" d="M74.94,437.87c-0.01-0.04-0.01-0.08-0.02-0.12c-0.01-0.03-0.03-0.06-0.04-0.1c-0.01-0.04-0.01-0.08-0.02-0.12
				c-0.01-0.03-0.03-0.06-0.04-0.1c-0.01-0.04-0.01-0.08-0.02-0.12c-0.01-0.03-0.03-0.06-0.04-0.1c-0.01-0.04-0.01-0.08-0.02-0.12
				c-0.01-0.03-0.03-0.06-0.04-0.1c-0.01-0.04-0.01-0.08-0.02-0.12c-0.01-0.03-0.03-0.06-0.04-0.1c-0.01-0.04-0.01-0.08-0.02-0.12
				c-0.01-0.03-0.03-0.06-0.04-0.1c-0.01-0.04-0.01-0.08-0.02-0.12c-0.01-0.03-0.03-0.06-0.04-0.1c-0.01-0.04-0.01-0.08-0.02-0.12
				c-0.01-0.03-0.03-0.06-0.04-0.1c-0.01-0.04-0.01-0.08-0.02-0.12c-0.01-0.03-0.03-0.06-0.04-0.1c-0.01-0.04-0.01-0.08-0.02-0.12
				c-0.01-0.03-0.03-0.06-0.04-0.1c-0.01-0.04-0.01-0.08-0.02-0.12c-0.01-0.03-0.03-0.06-0.04-0.1c-0.01-0.04-0.01-0.08-0.02-0.12
				c-0.01-0.03-0.03-0.06-0.04-0.1c-0.01-0.04-0.01-0.08-0.02-0.12c-0.01-0.03-0.03-0.06-0.04-0.1c-0.01-0.04-0.01-0.08-0.02-0.12
				c-0.01-0.03-0.03-0.06-0.04-0.1c-0.01-0.04-0.01-0.08-0.02-0.12c-0.01-0.03-0.03-0.06-0.04-0.1c-0.01-0.04-0.01-0.08-0.02-0.12
				c-0.01-0.03-0.03-0.06-0.04-0.1c-0.01-0.04-0.01-0.08-0.02-0.12c-0.56-2.04-2.66-3.46-5.48-3.71c-0.26-0.02-0.53-0.04-0.81-0.04
				l-6.9-0.08l-2.64-4.36c-0.91-1.49-2.74-2.47-5.03-2.67c-3.71-0.33-7.69,1.35-9.67,4.08l-3.6,4.95l-7.05,1.41
				c-3.14,0.63-5.84,2.45-7.04,4.74c-0.62,1.2-0.76,2.39-0.46,3.46c0.02,0.07,0.04,0.14,0.06,0.21c0.02,0.07,0.04,0.14,0.06,0.22
				c0.02,0.07,0.04,0.14,0.06,0.22c0.02,0.07,0.04,0.14,0.06,0.21c0.02,0.07,0.04,0.14,0.06,0.21c0.02,0.07,0.04,0.14,0.06,0.22
				c0.02,0.07,0.04,0.14,0.06,0.21c0.02,0.07,0.04,0.14,0.06,0.22c0.02,0.07,0.04,0.14,0.06,0.21c0.02,0.07,0.04,0.14,0.06,0.22
				c0.02,0.07,0.04,0.14,0.06,0.21c0.02,0.07,0.04,0.14,0.06,0.22c0.02,0.07,0.04,0.14,0.06,0.21c0.02,0.07,0.04,0.14,0.06,0.22
				c0.02,0.07,0.04,0.14,0.06,0.21c0.02,0.07,0.04,0.14,0.06,0.22c0.23,1.07,0.89,2.02,1.96,2.74l2.89,1.94L30.18,453
				c-0.32,0.99-0.32,1.94-0.03,2.79c0.02,0.07,0.03,0.14,0.06,0.21c0.02,0.07,0.03,0.15,0.06,0.22c0.02,0.07,0.03,0.15,0.06,0.22
				c0.02,0.07,0.03,0.14,0.06,0.21c0.02,0.07,0.03,0.14,0.06,0.21c0.02,0.07,0.03,0.15,0.06,0.22c0.02,0.07,0.03,0.14,0.06,0.21
				c0.02,0.07,0.03,0.15,0.06,0.22c0.02,0.07,0.03,0.14,0.06,0.21c0.02,0.07,0.03,0.15,0.06,0.22c0.02,0.07,0.03,0.14,0.06,0.21
				c0.02,0.07,0.03,0.15,0.06,0.22c0.02,0.07,0.03,0.14,0.06,0.21c0.02,0.07,0.03,0.15,0.06,0.22c0.02,0.07,0.03,0.14,0.06,0.21
				c0.02,0.07,0.03,0.15,0.06,0.22c0.56,1.98,2.59,3.46,5.49,3.72c1.91,0.17,3.98-0.21,5.84-1.07l6.49-3.01l5.99,1.82
				c0.57,0.17,1.17,0.29,1.8,0.34c2.63,0.23,5.51-0.58,7.69-2.17c2.17-1.58,3.32-3.71,3.05-5.68l-0.67-5l5.42-4.11
				c2.28-1.73,3.36-4.07,2.8-6.11C74.96,437.93,74.95,437.9,74.94,437.87z"/>
		</g>
		<g>
			<g>
				<path class="st0" d="M348.51,383.88c-2.17,0-4.09-0.64-5.54-1.85l-9.99-8.33c-0.26-0.22-0.85-0.45-1.73-0.45
					c-0.3,0-0.6,0.03-0.91,0.08l-16.84,2.92c-0.67,0.12-1.33,0.17-1.98,0.18c-3.32,0-6.1-1.56-7.25-4.08
					c-1.06-2.31-0.56-5,1.33-7.19l9.81-11.4c0.38-0.44,0.42-0.74,0.41-0.79l-5.72-10.63c-1.06-1.97-0.96-4.29,0.28-6.35
					c1.75-2.94,5.48-4.91,9.27-4.91c0.29,0,0.58,0.01,0.88,0.04l16.05,1.28c0.12,0.01,0.24,0.01,0.37,0.01
					c1.11,0,2.31-0.38,3.21-1.02l13.31-9.49c1.93-1.38,4.3-2.14,6.66-2.14c4.52,0,7.83,2.74,7.86,6.53l0.11,12.2
					c0.02,0.05,0.18,0.24,0.63,0.4l13.94,4.76c2.88,0.98,4.63,3.2,4.69,5.92c0.07,3.24-2.31,6.27-6.06,7.74l-15.99,6.25
					c-1.23,0.48-1.99,1.25-2.2,1.8l-4.69,12.44C356.9,381.79,352.29,383.88,348.51,383.88z"/>
				<path d="M360.12,322.75c2.63,0,4.84,1.3,4.86,3.55l0.11,12.2c0.01,1.44,1.01,2.64,2.66,3.21l13.94,4.76
					c4.16,1.42,3.27,6.17-1.5,8.03l-15.99,6.25c-1.89,0.74-3.36,2.06-3.91,3.54l-4.69,12.44c-0.95,2.52-4.18,4.15-7.09,4.15
					c-1.37,0-2.66-0.36-3.62-1.15l-9.99-8.33c-0.9-0.75-2.2-1.15-3.65-1.15c-0.46,0-0.94,0.04-1.43,0.13l-16.84,2.92
					c-0.51,0.09-1,0.13-1.47,0.13c-4.11,0-6.28-3.26-3.65-6.31l9.81-11.4c1.16-1.35,1.45-2.91,0.78-4.17l-5.71-10.63
					c-1.63-3.03,2.37-6.84,6.9-6.84c0.21,0,0.42,0.01,0.64,0.03l16.05,1.28c0.2,0.02,0.4,0.02,0.6,0.02c1.73,0,3.54-0.57,4.95-1.58
					l13.31-9.49C356.72,323.25,358.5,322.75,360.12,322.75 M360.12,316.75L360.12,316.75c-2.98,0-5.97,0.96-8.41,2.7l-13.31,9.49
					c-0.39,0.28-0.98,0.46-1.47,0.46c-0.04,0-0.09,0-0.13,0l-16.05-1.28c-0.37-0.03-0.74-0.04-1.12-0.04
					c-4.88,0-9.53,2.5-11.84,6.37c-1.79,2.99-1.91,6.39-0.34,9.31l4.84,9.01l-8.98,10.44c-2.67,3.11-3.34,6.99-1.78,10.4
					c1.65,3.6,5.47,5.83,9.98,5.83c0.82,0,1.66-0.07,2.49-0.22l16.84-2.92c0.14-0.02,0.27-0.04,0.4-0.04c0.04,0,0.07,0,0.1,0
					l9.69,8.08c2,1.67,4.58,2.55,7.46,2.55c5.7,0,10.92-3.3,12.7-8.03l4.59-12.18c0.1-0.08,0.29-0.21,0.58-0.32l15.99-6.25
					c4.94-1.93,8.07-6.09,7.97-10.6c-0.09-3.98-2.66-7.31-6.72-8.7l-12.55-4.29l-0.09-10.25
					C370.93,320.83,366.27,316.75,360.12,316.75L360.12,316.75z"/>
			</g>
			<g>
				<path class="st0" d="M317.39,427.49c-1.59,0-3.83-0.3-5.55-1.71c-0.48-0.35-1.25-0.97-2.71-2.12c-1.17-0.93-3.04-2.41-4.27-3.36
					l-0.14,0.06l-1.15-0.96c-0.12-0.01-0.29-0.02-0.54-0.02c-0.75,0-1.78,0.11-2.92,0.31l0-0.01c-3.11,0.72-13.59,2.06-14.57,2.06
					c-0.09,0-0.18,0-0.27-0.01c-0.28,0.03-0.56,0.04-0.83,0.04c-2.73,0-5.11-1.48-6.21-3.88c-1.11-2.43-0.69-5.24,1.11-7.33l0,0
					c0.39-0.51,1.1-1.37,2.47-3.01c0.91-1.1,2.15-2.59,3.17-3.84l-0.12-0.08l1.84-2.13c-0.06-0.21-0.17-0.52-0.37-0.93
					c-0.46-0.68-1.14-1.98-2.44-4.77c-1.59-3.38-2.1-4.79-2.21-5.65c-0.39-1.35-0.17-2.84,0.65-4.21c1.7-2.84,5.91-5.06,9.59-5.06
					c0.19,0,0.38,0.01,0.57,0.02c0.37,0.01,1.32,0.07,4.36,0.26c2.32,0.15,5.52,0.35,7.35,0.45l0.06-0.09l1.6,0.13
					c0.32-0.05,1.42-0.46,3.32-1.8c0.67-0.55,2.15-1.6,5.84-4.07c3.89-2.6,5.51-3.61,6.42-3.99c1.32-0.8,2.87-1.22,4.52-1.22
					c4.47,0,8.13,2.93,8.17,6.54c0.05,0.61,0.08,1.56,0.14,3.14c0.04,1.05,0.09,2.59,0.15,3.9l0.19,0l0.02,1.99
					c0.33,0.18,0.85,0.42,1.61,0.69c0.78,0.2,2.34,0.73,6.04,2.16c3.49,1.34,5.23,2.05,6.17,2.69c1.86,0.9,2.98,2.6,3.03,4.69
					c0.07,3.2-2.54,6.66-6.06,8.04v0c-0.56,0.25-1.67,0.7-4.14,1.71c-1.96,0.8-4.81,1.96-6.68,2.74l0.01,0.1l-2.19,0.86
					c-0.09,0.07-0.68,0.71-1.26,2.26l-0.05-0.02c-0.83,3-3.72,8.94-4.73,10.8C324.98,426.04,320.9,427.49,317.39,427.49z"/>
				<path class="st0" d="M325.97,373.55c2.61,0,5.16,1.56,5.17,3.58c0.07,0.12,0.32,9.95,0.51,9.95c0.01,1.16,2.42,2.13,3.74,2.59
					c0.48,0.01,11.78,4.24,11.4,4.52c3.33,1.14,1.35,5.89-2.46,7.39c-0.15,0.11-13.02,5.27-13,5.41c-1.52,0.59-2.53,2.82-2.97,4
					c0.05,0.35-4.19,10.49-4.65,10.49c0,0-0.01,0-0.01,0c-0.72,1.91-3.67,3.01-6.31,3.01c-1.45,0-2.81-0.33-3.66-1.04
					c-0.16-0.05-8.26-6.61-8.54-6.61c0,0,0,0,0,0c-0.41-0.35-1.23-0.46-2.15-0.46c-1.18,0-2.53,0.19-3.43,0.35
					c-0.42,0.19-12.28,2-14.06,2c-0.15,0-0.23-0.01-0.22-0.04c-0.3,0.05-0.6,0.08-0.88,0.08c-3.42,0-4.98-3.73-2.82-6.25
					c0.05-0.14,7.85-9.41,7.72-9.49c0.93-1.08,0.07-3.06-0.47-4.07c-0.33-0.22-4.66-9.18-4.17-9.28c-1.31-2.43,3.44-5.8,7.21-5.8
					c0.16,0,0.32,0.01,0.47,0.02c0,0,0.01,0,0.03,0c0.65,0,11.48,0.76,13.09,0.76c0.12,0,0.19,0,0.2-0.01
					c0.05,0,0.11,0.01,0.17,0.01c1.53,0,3.9-1.54,5.12-2.41c0.25-0.34,11.09-7.71,11.69-7.71c0.01,0,0.02,0,0.02,0.01
					C323.67,373.85,324.83,373.55,325.97,373.55 M325.97,367.55L325.97,367.55c-2.14,0-4.16,0.54-5.91,1.56
					c-1.3,0.6-3.17,1.8-6.69,4.16c-3.58,2.39-5.21,3.54-6.08,4.23c-0.85,0.59-1.46,0.93-1.82,1.09l-2.65-0.21l-0.09,0.13
					c-1.84-0.11-4.15-0.26-5.69-0.36c-3.13-0.2-4-0.25-4.43-0.27c-0.23-0.01-0.46-0.02-0.7-0.02c-4.71,0-9.95,2.8-12.17,6.52
					c-1.23,2.06-1.57,4.33-1,6.43c0.24,1.42,0.99,3.18,2.42,6.24c0.84,1.79,1.46,3.05,1.96,3.98l-2.74,3.19l0.18,0.12
					c-0.39,0.47-0.75,0.91-1.06,1.28c-1.19,1.43-1.94,2.34-2.43,2.96l0,0c-2.58,2.99-3.18,7.03-1.57,10.54
					c1.59,3.47,5.01,5.62,8.93,5.62c0.3,0,0.6-0.01,0.91-0.04c0.06,0,0.13,0,0.19,0c0.46,0,1.66,0,8.42-0.99
					c4.11-0.6,5.94-0.91,6.9-1.14c0.6-0.1,1.16-0.17,1.62-0.2l1.79,1.49l0.2-0.09c0.98,0.77,2.04,1.61,2.8,2.21
					c1.33,1.06,2.16,1.72,2.75,2.15c1.89,1.52,4.44,2.32,7.37,2.32c4.2,0,9.08-1.74,11.31-5.59c0.51-0.7,1.3-2.1,3.2-6.53
					c1.2-2.81,1.86-4.42,2.19-5.55c0.1-0.23,0.19-0.42,0.26-0.56l3.55-1.39l-0.02-0.15c1.57-0.64,3.3-1.35,4.53-1.85
					c2.18-0.89,3.38-1.38,4.11-1.7l0,0c4.71-1.84,8.07-6.43,7.97-10.9c-0.07-3.17-1.79-5.85-4.57-7.26
					c-1.4-0.88-3.45-1.67-6.55-2.86c-2.97-1.14-4.67-1.76-5.74-2.09l-0.03-2.91l-0.28,0c-0.01-0.38-0.03-0.73-0.04-1.03
					c-0.05-1.38-0.09-2.36-0.14-3.1C337.06,371.79,332.06,367.55,325.97,367.55L325.97,367.55z"/>
			</g>
			<g>
				<path class="st0" d="M260.46,454.22c-1.4,0-3.94-0.19-5.67-1.43c-0.41-0.25-1.04-0.71-2.35-1.68c-0.82-0.6-2.27-1.67-3.26-2.36
					l-0.31,0.14l-0.78-0.65c-0.86,0.1-2.18,0.41-2.96,0.59c-0.5,0.11-0.93,0.21-1.24,0.27c-2.45,0.66-9.21,1.28-11.21,1.28
					c0,0-0.01,0-0.02,0c-0.45,0-1.09,0-1.74-0.18c-2.09-0.05-3.9-1.31-4.85-3.38c-1.14-2.49-0.84-5.55,0.72-7.55
					c0.28-0.42,0.81-1.09,1.91-2.51c0.54-0.69,1.3-1.66,1.98-2.55l-0.28-0.19l1.23-1.43c-0.18-0.27-0.36-0.54-0.47-0.71
					c-0.29-0.42-0.52-0.78-0.65-1.01l0.01-0.01c-1.63-2.44-3.48-7.82-3.11-9.69c0-0.01,0-0.02,0.01-0.03
					c-0.02-0.79,0.21-1.61,0.66-2.37c1.66-2.78,6.81-5.02,9.96-5.02c0.11,0,0.22,0,0.32,0.01c0.06,0,0.13,0,0.2,0
					c0.49,0,1.75,0.05,3.25,0.11c1.85,0.07,4.1,0.16,5.55,0.18l0.14-0.2l1.18,0.09c0.67-0.38,1.95-1.42,2.47-1.83
					c0.44-0.35,0.81-0.65,1.06-0.83l0.01,0.02c2.1-1.72,8.03-5.56,10.85-6.37c0.84-0.42,1.8-0.64,2.81-0.64
					c3.59,0,7.93,2.79,8.27,6.33c0.08,0.51,0.15,1.27,0.25,2.63c0.05,0.64,0.13,1.63,0.22,2.53l0.43,0.01l0.01,1.3
					c0.56,0.17,1.2,0.34,1.56,0.44c0.53,0.14,0.98,0.26,1.25,0.35l-0.01,0.03c2.28,0.61,7.73,2.62,9.93,4.78
					c1.16,0.77,1.86,2.05,1.89,3.53c0.07,3.25-3.09,6.96-6.04,8.24c-0.42,0.21-1.23,0.57-3.3,1.46c-1.3,0.56-3.34,1.45-4.77,2.09
					l0.03,0.24l-1.59,0.62c-0.22,0.51-0.46,1.38-0.57,1.8c-0.13,0.49-0.26,0.9-0.35,1.16l-0.01,0c-0.8,2.99-3.85,8.2-4.66,9.13
					c-0.2,0.22-0.4,0.42-0.61,0.59C265.91,454.01,261.8,454.22,260.46,454.22z"/>
				<path d="M265.87,407.31c2.39,0,5.27,2.04,5.29,3.75c0.15,0.24,0.53,7.71,0.91,7.71c0.01,0.87,3.83,1.62,4.82,1.96
					c0.96,0.01,9.62,3.71,8.87,4.28c2.49,0.85-0.57,5.62-3.43,6.74c-0.3,0.23-10.05,4.28-10.01,4.56c-1.14,0.44-1.7,3.58-2.04,4.46
					c0.09,0.69-3.68,8.55-4.59,8.55c-0.01,0-0.03,0-0.04-0.01c-0.49,1.29-2.9,1.9-5.19,1.9c-1.67,0-3.28-0.33-4.03-0.95
					c-0.33-0.1-6.53-4.9-7.07-4.9c-0.01,0-0.02,0-0.02,0c-0.14-0.12-0.41-0.16-0.77-0.16c-1.47,0-4.34,0.79-5.3,0.96
					c-0.71,0.33-7.75,1.22-10.57,1.22c-0.75,0-1.21-0.06-1.16-0.22c-0.16,0.03-0.31,0.04-0.46,0.04c-2.65,0-3.47-4.26-1.81-6.2
					c0.1-0.29,5.89-7.41,5.63-7.58c0.7-0.81-1.32-3.21-1.72-3.97c-0.65-0.44-3.6-7.73-2.62-7.93c-0.99-1.83,4.53-4.76,7.5-4.76
					c0.11,0,0.22,0,0.32,0.01c0.03-0.01,0.09-0.01,0.2-0.01c1.16,0,6.79,0.29,9.24,0.29c0.67,0,1.1-0.02,1.14-0.08
					c0.02,0,0.04,0,0.06,0c1.18,0,4.03-2.59,4.96-3.25c0.48-0.66,8.85-5.94,9.99-5.94c0.06,0,0.1,0.01,0.12,0.04
					C264.58,407.47,265.21,407.31,265.87,407.31 M265.87,401.31L265.87,401.31c-1.26,0-2.46,0.23-3.56,0.69
					c-1.38,0.35-3.23,1.25-6.75,3.41c-3.3,2.02-4.79,3.1-5.57,3.81c-0.23,0.18-0.47,0.37-0.73,0.58c-0.31,0.25-0.9,0.72-1.39,1.09
					l-1.81-0.14l-0.21,0.29c-1.23-0.04-2.67-0.09-3.92-0.14c-1.77-0.07-2.8-0.11-3.37-0.11c-0.06,0-0.11,0-0.17,0
					c-0.11,0-0.23-0.01-0.35-0.01c-4.1,0-10.25,2.66-12.53,6.48c-0.68,1.13-1.04,2.36-1.08,3.59c-0.22,1.34-0.15,3.21,1.41,7.27
					c0.79,2.04,1.44,3.37,2.02,4.28l-1.94,2.25l0.43,0.29c0,0,0,0,0,0.01c-0.99,1.26-1.58,2.02-1.96,2.57
					c-2.18,2.86-2.61,7.13-1.03,10.58c1.37,2.98,4.08,4.9,7.16,5.11c0.91,0.2,1.71,0.2,2.18,0.2c1.58,0,8.25-0.5,11.65-1.31
					c0.42-0.07,0.88-0.18,1.47-0.32c0.33-0.08,0.89-0.2,1.43-0.32l1.18,0.98l0.45-0.21c0.67,0.48,1.34,0.98,1.8,1.32
					c1.16,0.85,1.88,1.38,2.42,1.73c2.27,1.61,5.23,1.96,7.38,1.96c4.28,0,7.62-1.29,9.54-3.6c0.23-0.21,0.46-0.44,0.68-0.69
					c0.97-1.11,2.14-3.05,3.47-5.77c1.17-2.4,1.76-3.89,2-5.02c0.07-0.22,0.13-0.44,0.19-0.67c0.02-0.09,0.06-0.2,0.09-0.32
					l2.46-0.96l-0.05-0.34c0.97-0.42,1.96-0.85,2.69-1.17c1.87-0.81,2.81-1.22,3.38-1.5c3.9-1.73,7.86-6.43,7.76-11.02
					c-0.05-2.08-0.92-3.95-2.36-5.27c-1.21-1.42-3.19-2.49-6.29-3.88c-3.1-1.39-4.77-1.92-5.78-2.14c-0.07-0.02-0.14-0.04-0.21-0.06
					l-0.02-1.98l-0.65-0.01c-0.09-1.09-0.15-1.88-0.25-2.51c-0.25-2.52-1.77-4.92-4.24-6.67
					C270.75,402.14,268.27,401.31,265.87,401.31L265.87,401.31z"/>
			</g>
			<g>
				<path class="st0" d="M190.32,466.38c-0.79,0-4.6-0.07-6.67-1.36c-0.4-0.21-0.91-0.53-1.8-1.1c-0.57-0.36-1.56-1-2.29-1.42
					l-0.55,0.25l-0.48-0.4c-0.89,0.24-2.18,0.65-2.9,0.89c-0.93,0.3-1.47,0.47-1.87,0.57c-2.24,0.78-6.98,0.8-7.03,0.8
					c-1.96,0-3.47-0.16-4.53-0.85c-1.05-0.38-1.93-1.2-2.46-2.37c-0.98-2.14-0.91-6.03,0.59-8.17c0.22-0.39,0.58-0.9,1.22-1.82
					c0.23-0.33,0.56-0.81,0.9-1.29l-0.52-0.35l0.74-0.86c-0.18-0.19-0.35-0.37-0.48-0.5c-0.49-0.51-0.83-0.86-1.08-1.2
					c-1.71-1.93-2.65-6.27-2.23-8.34c0.13-0.64,0.37-1.21,0.71-1.68c0.07-0.17,0.16-0.35,0.26-0.51c1.62-2.7,8.07-4.68,10.31-4.68
					c0.02,0,0.05,0,0.07,0c0.42-0.03,1.07-0.04,2.47-0.04c0.96,0,2.69-0.01,3.78-0.06l0.26-0.35l0.75,0.06
					c0.62-0.53,1.56-1.47,2.07-1.98c0.71-0.71,1.1-1.09,1.44-1.36c1.96-1.81,7.65-4.94,10.08-4.94c0.07,0,0.14,0,0.21,0.01
					c0.3-0.06,0.6-0.09,0.92-0.09c2.91,0,7.3,3.26,7.92,6.34c0.12,0.44,0.22,1,0.36,1.93c0.05,0.33,0.13,0.81,0.21,1.29l0.78,0.01
					l0.01,0.77c0.61,0.11,1.26,0.2,1.68,0.27c0.96,0.15,1.49,0.23,1.89,0.33c2.46,0.44,7.78,2.99,8.65,5.63
					c0.05,0.15,0.09,0.29,0.12,0.44c0.19,0.43,0.29,0.9,0.3,1.39c0.06,3-3.99,7.11-6.36,8.26c-0.36,0.21-0.95,0.5-2.29,1.14
					c-0.74,0.36-1.97,0.95-2.93,1.44l0.06,0.42l-1,0.39c-0.08,0.53-0.15,1.17-0.2,1.56c-0.08,0.68-0.13,1.17-0.23,1.59
					c-0.41,2.91-3.74,6.98-3.78,7.03c-0.53,0.6-1.27,1.35-2.23,1.75C193.6,466.38,191.25,466.38,190.32,466.38z"/>
				<path class="st0" d="M192.2,426.23c1.87,0,4.99,2.81,5,4.06c0.22,0.36,0.74,5.46,1.31,5.47c0.01,0.58,5.24,1.11,5.9,1.34
					c1.44,0.02,7.47,3.19,6.33,4.05c1.66,0.57-2.49,5.35-4.4,6.09c-0.45,0.34-7.08,3.3-7.03,3.71c-0.76,0.3-0.87,4.33-1.1,4.92
					c0.14,1.01-3.13,6.62-4.48,6.62c-0.04,0-0.08-0.01-0.12-0.02c-0.24,0.65-1.67,0.91-3.3,0.91c-2.09,0-4.52-0.42-5.19-0.98
					c-0.48-0.15-4.78-3.19-5.58-3.19c-0.03,0-0.06,0-0.08,0.01c-0.04-0.04-0.13-0.05-0.24-0.05c-1.16,0-5.61,1.63-6.34,1.76
					c-0.78,0.36-3.8,0.68-6.16,0.68c-1.76,0-3.17-0.18-3.01-0.64c-0.07,0.01-0.13,0.02-0.19,0.02c-1.82,0-1.79-4.84-0.65-6.16
					c0.14-0.43,3.92-5.41,3.53-5.67c0.47-0.54-2.7-3.37-2.97-3.87c-0.98-0.66-2.55-6.29-1.07-6.58c-0.66-1.23,5.67-3.73,7.79-3.73
					c0.06,0,0.12,0,0.17,0.01c0.59-0.12,7.54,0.08,7.84-0.33c0.01,0,0.01,0,0.02,0c0.8,0,4.1-3.65,4.73-4.1
					c0.68-0.93,6.56-4.24,8.15-4.24c0.18,0,0.3,0.04,0.36,0.13C191.65,426.3,191.91,426.23,192.2,426.23 M192.2,420.23L192.2,420.23
					c-0.39,0-0.77,0.03-1.15,0.09c-1.3,0-3.19,0.31-7.23,2.48c-2.97,1.6-4.37,2.71-5.09,3.44c-0.36,0.32-0.75,0.71-1.29,1.24
					c-0.26,0.25-0.64,0.64-1.02,1.01l-1.12-0.09l-0.38,0.52c-0.81,0.01-1.67,0.01-2.24,0.02c-1.23,0-1.97,0.01-2.54,0.04
					c-2.69,0.01-10.49,2.16-12.87,6.14c-0.12,0.2-0.23,0.4-0.32,0.61c-0.48,0.75-0.83,1.6-1.01,2.54
					c-0.55,2.76,0.41,7.82,2.74,10.67l-1.22,1.42l0.8,0.54c-0.18,0.27-0.34,0.51-0.47,0.73c-2.08,3.12-2.13,8.03-0.77,11
					c0.82,1.78,2.19,3.11,3.84,3.81c2.01,1.16,4.41,1.16,5.88,1.16c0.9,0,5.13-0.05,7.82-0.91c0.47-0.12,1.05-0.31,2-0.61
					c0.33-0.11,0.81-0.26,1.3-0.41l0.7,0.59l0.81-0.38c0.33,0.21,0.64,0.41,0.87,0.55c0.89,0.57,1.48,0.95,2.01,1.23
					c2.63,1.53,6.43,1.71,8.07,1.71c2.03,0,4.44-0.33,6.31-1.55c1.56-0.74,2.59-1.91,3.02-2.41c0.04-0.05,3.71-4.28,4.44-8.28
					c0.12-0.53,0.19-1.07,0.27-1.72l1.53-0.6l-0.08-0.62c0.37-0.18,0.71-0.34,0.98-0.47c1.17-0.56,1.85-0.89,2.34-1.16
					c2.02-0.98,3.8-2.79,4.72-3.83c2.26-2.55,3.33-4.9,3.28-7.17c-0.02-0.79-0.17-1.55-0.44-2.25c-0.04-0.15-0.08-0.3-0.13-0.45
					c-1.29-3.92-7.15-6.77-10.56-7.54c-0.43-0.12-0.9-0.21-1.53-0.31l-0.01-1.17l-1.21-0.01c-0.07-0.36-0.14-0.69-0.22-1
					C201.99,424.29,196.43,420.23,192.2,420.23L192.2,420.23z"/>
			</g>
			<g>
				<path class="st0" d="M98.14,466.32c-2.99,0-5.02-0.71-6.04-2.12c-0.17-0.24-0.31-0.49-0.42-0.76c-0.09-0.14-0.18-0.29-0.25-0.45
					c-0.81-1.76-0.18-6.16,0.81-8.29c0.13-0.35,0.32-0.71,0.59-1.22c0.03-0.05,0.06-0.12,0.1-0.18l-0.94-0.63l0.34-0.4
					c-0.23-0.19-0.45-0.37-0.62-0.51c-0.74-0.6-1.18-0.96-1.48-1.25c-1.74-1.45-2.25-4.21-1.83-6.33c0.33-1.63,1.2-2.9,2.42-3.59
					c0.73-0.65,2.02-1.24,4.81-2.09c1.07-0.33,3.6-1.06,4.92-1.14c0.31-0.04,0.7-0.08,1.28-0.14c0.51-0.05,1.53-0.15,2.21-0.25
					l0.44-0.61l0.35,0.03c0.61-0.68,1.44-1.67,1.92-2.24c0.78-0.93,1.17-1.38,1.44-1.66c1.68-1.95,5.83-3.62,8.16-3.62
					c0.9,0,1.61,0.21,2.14,0.5c2.18,0.76,4.77,3.64,5.8,5.78l0.01-0.01c0.25,0.41,0.4,0.83,0.6,1.42c0.04,0.1,0.08,0.23,0.13,0.38
					l1.38,0.01l0,0.35c0.75,0.06,1.52,0.11,2.04,0.15c1.28,0.09,1.91,0.14,2.31,0.19c2.46,0.19,5.77,2.22,6.62,4.78
					c0.38,1.16,0.25,2.33-0.34,3.29c-1.02,2.47-4.73,5.45-6.39,6.55l0.01,0.01c-0.29,0.22-0.67,0.45-1.36,0.86
					c-0.31,0.18-0.84,0.5-1.31,0.8l0.1,0.76l-0.47,0.18c0.01,0.55,0.02,1.14,0.03,1.52c0.02,0.89,0.03,1.44,0.01,1.86
					c0,1.93-1.36,3.79-2.22,4.77c-1.08,1.24-2.78,2.71-4.8,2.81c-0.42,0.11-0.9,0.18-1.47,0.18c-1.16,0-5.6-0.54-7.83-1.49
					c-0.36-0.12-0.75-0.3-1.27-0.55c-0.33-0.16-0.98-0.46-1.46-0.65l-0.94,0.44l-0.22-0.18c-0.99,0.37-2.32,0.91-3.1,1.22
					c-1.32,0.53-1.91,0.76-2.28,0.88C100.81,466.21,99.25,466.32,98.14,466.32z"/>
				<path d="M116.36,431.88c0.46,0,0.8,0.11,0.96,0.36c0.05-0.03,0.11-0.05,0.18-0.05c1.05,0,4.25,3.84,4.25,4.52
					c0.29,0.48,0.95,3.22,1.71,3.22c0,0.29,6.65,0.6,6.98,0.71c1.92,0.02,5.31,2.66,3.8,3.81c0.83,0.28-4.41,5.07-5.37,5.45
					c-0.6,0.45-4.11,2.31-4.04,2.86c-0.38,0.15-0.05,5.09-0.16,5.38c0.17,1.31-2.53,4.71-4.24,4.71c-0.11,0-0.22-0.01-0.33-0.05
					c-0.06,0.15-0.4,0.22-0.92,0.22c-1.95,0-6.36-0.93-6.83-1.32c-0.6-0.18-2.97-1.5-3.95-1.5c-0.1,0-0.19,0.01-0.26,0.05
					c-0.01-0.01-0.02-0.01-0.05-0.01c-0.63,0-6.65,2.56-7.03,2.62c-0.66,0.31-1.79,0.46-2.93,0.46c-1.98,0-4-0.46-3.69-1.39
					c-0.02,0-0.03,0-0.04,0c-0.93,0,0.05-5.46,0.62-6.13c0.19-0.58,1.96-3.41,1.44-3.76c0.23-0.27-4.08-3.52-4.22-3.77
					c-1.3-0.88-1.49-4.84,0.48-5.23c-0.33-0.62,6.88-2.69,8.05-2.69c0.02,0,0.04,0,0.06,0c0.78-0.16,4.7-0.32,5.1-0.87c0,0,0,0,0,0
					c0.4,0,4.16-4.72,4.47-4.94C111.19,433.45,114.61,431.88,116.36,431.88 M116.36,425.88c-3.12,0-7.97,1.91-10.34,4.56
					c-0.37,0.38-0.82,0.91-1.56,1.79c-0.23,0.27-0.55,0.65-0.88,1.04l-0.52-0.04l-0.68,0.93c-0.31,0.03-0.61,0.06-0.83,0.08
					c-0.49,0.05-0.9,0.09-1.26,0.13c-0.75,0.05-2.31,0.28-5.53,1.26c-2.64,0.8-4.43,1.49-5.71,2.53c-1.82,1.14-3.12,3.07-3.6,5.44
					c-0.56,2.84,0.05,6.69,2.61,9.01l-0.56,0.65l1.64,1.1c-1.13,3.04-1.56,7.45-0.44,9.88c0.09,0.2,0.19,0.4,0.3,0.59
					c0.18,0.39,0.4,0.77,0.66,1.14c1.62,2.23,4.47,3.37,8.47,3.37c1.36,0,3.27-0.15,4.98-0.81c0.49-0.17,1.17-0.44,2.37-0.92
					c0.37-0.15,0.89-0.35,1.42-0.57l0.32,0.27l1.43-0.66c0.06,0.03,0.11,0.05,0.16,0.07c0.59,0.27,1.07,0.5,1.58,0.67
					c3.43,1.4,8.73,1.65,8.79,1.65c0.73,0,1.38-0.08,1.96-0.21c2.9-0.28,5.15-2.18,6.56-3.8c1.39-1.59,2.96-3.99,2.97-6.71
					c0.02-0.4,0.02-0.85,0-1.4l0.71-0.28l-0.15-1.14c0.26-0.15,0.48-0.29,0.68-0.42c0.78-0.44,2.05-1.33,4.12-3.29
					c2.06-1.95,3.43-3.52,3.98-5.28c0.67-1.53,0.77-3.29,0.21-5c-1.26-3.82-5.59-6.5-9.13-6.82c-0.41-0.05-0.94-0.1-1.72-0.15
					l0-0.53l-2.27-0.03c-0.46-1.01-1.27-2.23-2.64-3.77c-1.87-2.1-3.52-3.3-5.23-3.77C118.38,426.06,117.4,425.88,116.36,425.88
					L116.36,425.88z"/>
			</g>
			<g>
				<path class="st0" d="M37.56,458.45c-1.87,0-3.57-0.79-4.53-2.13c-0.85-1.18-1.08-2.68-0.61-4.11l1.68-5.11l-4.61-3.1
					c-1.59-1.07-2.35-2.87-1.99-4.7c0.45-2.24,2.49-4.09,5.09-4.61l8.24-1.65c0.28-0.06,0.48-0.19,0.53-0.24l4.19-5.78
					c1.22-1.68,3.37-2.73,5.6-2.73c2.03,0,3.79,0.91,4.71,2.42l2.81,4.62l7.93,0.1c2.42,0.03,4.41,1.34,5.07,3.35
					c0.66,2.01-0.11,4.16-2.03,5.61l-6.14,4.65l0.7,5.22c0.19,1.39-0.26,2.78-1.26,3.92c-1.26,1.44-3.27,2.33-5.26,2.33
					c-0.64,0-1.26-0.09-1.86-0.27l-7-2.12c0,0-0.04-0.01-0.1-0.01c-0.17,0-0.36,0.04-0.52,0.12l-7.58,3.52
					C39.63,458.22,38.58,458.45,37.56,458.45z"/>
				<path class="st0" d="M51.16,427.3c0.91,0,1.74,0.32,2.14,0.98l3.09,5.09c0.37,0.6,1.16,0.97,2.11,0.98l8.07,0.09
					c2.41,0.03,3.15,2.14,1.26,3.57l-6.33,4.8c-0.75,0.57-1.14,1.32-1.05,2.01l0.78,5.85c0.2,1.48-1.7,2.86-3.55,2.86
					c-0.33,0-0.67-0.04-0.98-0.14l-7-2.12c-0.3-0.09-0.63-0.14-0.97-0.14c-0.59,0-1.22,0.14-1.79,0.4l-7.58,3.52
					c-0.6,0.28-1.21,0.41-1.78,0.41c-1.55,0-2.73-0.96-2.29-2.3l2.01-6.11c0.24-0.72-0.01-1.42-0.66-1.85l-5.47-3.67
					c-1.63-1.09-0.43-3.39,2.03-3.88l8.24-1.65c0.98-0.2,1.86-0.72,2.36-1.41l4.2-5.79C48.68,427.82,49.99,427.3,51.16,427.3
					 M51.16,421.3L51.16,421.3c-3.18,0-6.25,1.52-8.03,3.97l-3.62,4.99L32,431.76c-3.83,0.77-6.76,3.5-7.45,6.97
					c-0.61,3.04,0.64,6.02,3.26,7.78l2.73,1.83l-0.97,2.95c-0.77,2.35-0.4,4.83,1.03,6.8c1.53,2.11,4.13,3.37,6.96,3.37
					c1.46,0,2.95-0.33,4.31-0.96l6.94-3.22l6.14,1.86c0.87,0.27,1.79,0.4,2.73,0.4c2.87,0,5.68-1.25,7.52-3.35
					c1.58-1.8,2.28-4.04,1.98-6.3l-0.47-3.49l4.75-3.6c2.92-2.21,4.13-5.72,3.06-8.94c-1.07-3.24-4.16-5.37-7.88-5.41l-6.26-0.07
					l-1.95-3.21C56.96,422.74,54.24,421.3,51.16,421.3L51.16,421.3z"/>
			</g>
		</g>
	</g>
</g>
</svg>
